<?xml version="1.0" encoding="UTF-8"?>
<svg version="1.1" xmlns="http://www.w3.org/2000/svg" width="1024" height="1024">
<path d="M0,0 L77,0 L128,1 L126,3 L113,4 L148,5 L147,7 L135,7 L135,9 L164,9 L164,11 L154,11 L154,13 L179,13 L179,15 L169,16 L192,17 L192,19 L182,19 L182,21 L204,21 L204,23 L194,23 L194,25 L215,25 L215,27 L206,27 L206,29 L224,29 L223,31 L219,32 L234,33 L232,35 L242,37 L240,38 L240,40 L248,41 L249,43 L257,43 L256,47 L266,47 L264,51 L275,51 L272,52 L272,55 L282,55 L282,57 L280,57 L280,59 L290,59 L290,61 L287,62 L297,63 L297,65 L294,65 L294,67 L304,67 L301,71 L310,71 L310,73 L306,73 L306,75 L317,75 L318,77 L313,77 L313,79 L323,79 L321,83 L329,83 L329,85 L326,86 L334,87 L333,91 L338,91 L338,94 L344,95 L344,97 L346,97 L346,99 L348,99 L348,101 L352,101 L352,105 L356,105 L356,109 L363,109 L364,113 L368,113 L368,117 L372,117 L372,121 L376,121 L376,125 L380,125 L380,129 L386,129 L384,133 L390,133 L390,135 L388,135 L388,137 L394,137 L394,140 L398,141 L398,145 L402,147 L402,149 L404,149 L404,151 L406,151 L408,154 L410,155 L411,159 L414,158 L414,164 L418,162 L418,168 L422,167 L422,172 L426,171 L426,176 L430,175 L430,183 L432,183 L431,180 L434,180 L434,187 L437,187 L438,185 L438,191 L442,191 L443,195 L446,196 L446,203 L450,203 L450,207 L454,207 L454,211 L456,211 L456,213 L458,214 L459,217 L460,221 L464,222 L464,229 L468,228 L468,237 L470,237 L471,233 L472,234 L473,242 L476,239 L476,250 L478,250 L478,246 L480,246 L480,257 L482,256 L482,253 L484,253 L484,264 L486,264 L487,259 L488,259 L488,271 L490,271 L492,267 L493,277 L494,275 L496,275 L496,285 L498,285 L498,283 L500,283 L501,292 L504,291 L504,303 L507,303 L508,300 L508,310 L511,310 L512,310 L512,319 L514,319 L515,327 L517,327 L518,325 L519,334 L522,334 L523,349 L525,343 L526,343 L526,362 L528,362 L528,353 L530,353 L530,374 L532,374 L532,365 L534,365 L535,389 L536,378 L538,378 L538,405 L540,405 L540,394 L542,393 L542,427 L544,427 L544,411 L546,410 L546,455 L548,455 L548,434 L550,433 L550,585 L548,584 L548,563 L546,563 L546,609 L544,608 L544,592 L542,592 L542,629 L540,629 L539,614 L538,645 L536,645 L536,633 L534,633 L534,660 L532,660 L531,648 L530,672 L528,672 L528,662 L526,662 L526,684 L524,683 L523,677 L522,694 L520,691 L518,703 L517,701 L515,701 L516,708 L512,709 L512,720 L509,721 L508,730 L505,729 L504,740 L500,736 L500,748 L496,744 L496,756 L492,752 L492,763 L490,763 L490,759 L488,759 L488,770 L486,771 L485,767 L484,777 L482,778 L482,775 L480,774 L480,784 L478,783 L478,779 L476,779 L476,791 L474,791 L474,786 L472,786 L472,797 L468,794 L468,801 L466,801 L466,799 L464,799 L464,807 L460,807 L460,812 L457,815 L456,817 L454,817 L454,821 L450,821 L450,825 L446,825 L446,827 L449,828 L446,830 L446,833 L442,833 L442,837 L438,837 L438,841 L434,841 L434,848 L431,848 L432,845 L430,845 L430,852 L427,852 L426,857 L422,856 L422,861 L418,860 L418,865 L414,864 L414,869 L410,868 L410,873 L406,872 L406,875 L403,875 L404,879 L399,879 L400,883 L395,883 L396,887 L391,887 L392,891 L387,891 L388,895 L384,896 L384,899 L380,900 L380,903 L375,903 L376,906 L375,907 L368,907 L368,911 L364,911 L364,915 L361,915 L360,919 L357,919 L355,923 L352,923 L349,927 L342,930 L342,933 L336,933 L337,937 L329,937 L329,939 L332,940 L332,941 L325,942 L327,945 L318,946 L322,948 L321,949 L313,949 L315,953 L306,953 L307,955 L310,956 L309,957 L301,957 L303,961 L294,961 L294,963 L296,963 L296,965 L288,966 L290,967 L290,969 L281,969 L282,973 L275,973 L275,977 L268,978 L267,981 L261,981 L258,984 L254,985 L252,984 L252,987 L244,988 L244,990 L246,991 L233,992 L239,994 L239,995 L224,995 L224,997 L230,997 L230,999 L213,999 L213,1001 L220,1001 L220,1003 L202,1003 L202,1005 L210,1005 L210,1007 L190,1008 L198,1009 L199,1011 L177,1011 L177,1013 L186,1013 L186,1015 L162,1015 L162,1017 L171,1017 L172,1019 L144,1019 L144,1021 L154,1021 L155,1023 L123,1024 L-86,1024 L-86,798 L-81,797 L-81,793 L-77,791 L-77,789 L75,788 L75,786 L59,786 L59,785 L97,784 L98,781 L110,780 L110,779 L119,778 L128,778 L128,776 L124,777 L122,775 L136,774 L133,771 L148,771 L148,769 L144,769 L144,767 L158,767 L158,765 L152,765 L152,763 L166,763 L166,761 L161,761 L161,759 L174,759 L174,757 L169,756 L169,755 L179,755 L176,751 L186,751 L186,748 L182,749 L183,747 L190,746 L190,743 L197,742 L196,739 L201,739 L200,735 L205,734 L208,731 L212,731 L212,727 L215,727 L216,723 L220,724 L220,719 L222,719 L222,721 L224,721 L224,717 L228,717 L228,713 L232,713 L232,709 L236,709 L236,705 L240,705 L240,698 L243,697 L242,700 L244,701 L244,693 L248,693 L248,689 L252,689 L252,685 L255,685 L254,681 L256,681 L258,677 L260,674 L262,674 L262,669 L265,669 L266,661 L270,663 L270,655 L274,656 L274,647 L276,647 L275,651 L278,651 L278,640 L280,640 L281,643 L282,632 L284,632 L284,636 L286,636 L286,623 L288,623 L288,628 L290,628 L290,614 L292,614 L293,620 L294,603 L296,603 L296,611 L298,611 L298,593 L300,593 L300,601 L302,601 L302,580 L304,582 L305,583 L306,564 L307,564 L308,572 L309,573 L309,559 L310,544 L311,544 L311,484 L310,484 L308,458 L307,463 L306,463 L305,439 L303,447 L302,447 L302,426 L300,426 L300,433 L298,433 L298,415 L296,415 L296,422 L294,422 L294,405 L292,405 L292,412 L290,412 L290,397 L288,397 L288,403 L286,402 L286,389 L284,389 L283,394 L282,394 L282,381 L280,381 L279,386 L278,386 L278,376 L274,378 L274,369 L271,369 L270,371 L269,364 L266,364 L266,357 L262,358 L262,353 L260,353 L260,351 L258,351 L258,348 L254,347 L255,343 L252,343 L252,339 L248,339 L248,335 L244,334 L244,327 L242,327 L243,331 L240,330 L240,323 L238,324 L239,327 L236,326 L236,319 L232,319 L232,315 L228,315 L228,311 L224,311 L224,307 L222,307 L223,311 L220,310 L219,307 L217,307 L216,303 L212,303 L212,299 L208,298 L204,296 L204,294 L200,293 L200,289 L193,289 L194,285 L187,285 L188,283 L190,284 L190,281 L180,281 L182,280 L182,278 L174,277 L174,275 L178,275 L178,273 L166,273 L166,271 L170,270 L158,269 L158,267 L163,267 L163,265 L150,265 L150,263 L155,263 L155,261 L141,261 L141,259 L148,259 L148,257 L132,257 L132,255 L137,255 L137,253 L121,253 L122,251 L128,251 L124,250 L109,249 L112,247 L96,245 L96,244 L85,243 L82,240 L-4,239 L-4,241 L-1,243 L-21,243 L-22,244 L-16,244 L-16,245 L-34,246 L-34,248 L-30,249 L-46,250 L-41,252 L-41,253 L-58,253 L-58,255 L-52,255 L-52,257 L-68,257 L-68,259 L-62,259 L-62,261 L-76,262 L-71,263 L-71,265 L-84,265 L-84,267 L-79,267 L-79,269 L-92,269 L-92,271 L-89,270 L-87,273 L-96,274 L-96,276 L-94,277 L-104,277 L-104,279 L-101,279 L-101,281 L-109,281 L-108,285 L-115,285 L-114,289 L-119,289 L-119,293 L-126,293 L-126,297 L-130,296 L-130,301 L-134,300 L-134,303 L-138,303 L-138,307 L-142,307 L-142,311 L-146,311 L-146,315 L-150,315 L-150,319 L-154,319 L-154,323 L-158,323 L-158,327 L-162,327 L-162,331 L-166,331 L-166,335 L-169,335 L-168,339 L-172,340 L-172,343 L-174,343 L-174,345 L-176,345 L-176,350 L-180,350 L-180,355 L-184,354 L-184,362 L-188,361 L-188,368 L-190,368 L-190,365 L-192,365 L-192,376 L-194,375 L-193,373 L-195,373 L-196,383 L-200,380 L-200,391 L-202,391 L-202,385 L-204,385 L-204,399 L-206,399 L-206,393 L-208,393 L-208,408 L-210,408 L-211,403 L-212,418 L-214,417 L-214,411 L-216,411 L-216,429 L-218,427 L-219,424 L-220,442 L-221,442 L-221,435 L-223,435 L-223,445 L-224,454 L-225,454 L-226,470 L-229,469 L-230,541 L-231,541 L-232,496 L-234,496 L-234,1024 L-235,1022 L-238,1022 L-238,1024 L-469,1024 L-469,470 L-468,420 L-466,422 L-466,436 L-464,436 L-464,400 L-462,401 L-462,413 L-460,413 L-460,383 L-458,384 L-458,394 L-456,394 L-456,368 L-454,368 L-453,378 L-452,355 L-450,355 L-449,365 L-448,343 L-446,343 L-445,352 L-444,333 L-442,333 L-441,340 L-440,323 L-438,324 L-437,329 L-436,315 L-434,315 L-434,318 L-432,307 L-429,307 L-430,303 L-428,303 L-428,299 L-426,299 L-426,292 L-423,291 L-422,283 L-418,284 L-418,275 L-414,276 L-414,267 L-412,267 L-412,269 L-410,269 L-410,260 L-406,262 L-406,253 L-404,253 L-404,257 L-402,257 L-402,246 L-400,246 L-400,248 L-398,249 L-398,240 L-394,242 L-394,233 L-392,233 L-392,237 L-390,237 L-390,227 L-388,227 L-388,230 L-386,230 L-386,222 L-384,223 L-384,225 L-382,225 L-382,217 L-378,218 L-378,213 L-376,213 L-374,207 L-372,207 L-370,203 L-368,202 L-368,199 L-363,199 L-364,195 L-360,195 L-363,192 L-360,190 L-360,187 L-356,187 L-356,183 L-352,183 L-352,179 L-348,179 L-348,175 L-344,175 L-344,169 L-343,171 L-340,171 L-340,165 L-337,165 L-335,159 L-333,160 L-332,156 L-328,157 L-328,153 L-324,153 L-324,149 L-320,149 L-320,145 L-316,145 L-317,142 L-312,141 L-312,139 L-314,138 L-313,137 L-308,137 L-308,135 L-310,134 L-304,132 L-304,129 L-300,128 L-300,125 L-294,125 L-294,123 L-297,124 L-296,121 L-290,121 L-290,117 L-286,117 L-286,113 L-282,113 L-282,109 L-279,109 L-277,105 L-275,105 L-272,102 L-271,103 L-270,101 L-266,102 L-265,98 L-262,95 L-259,94 L-258,91 L-252,90 L-253,87 L-247,86 L-249,83 L-239,83 L-239,81 L-244,81 L-243,79 L-235,79 L-237,75 L-228,75 L-228,73 L-231,73 L-231,71 L-223,71 L-225,67 L-216,66 L-216,64 L-219,65 L-219,63 L-208,63 L-208,61 L-212,60 L-211,59 L-203,59 L-204,55 L-196,55 L-198,51 L-189,50 L-189,47 L-181,47 L-180,43 L-173,43 L-173,41 L-164,39 L-162,40 L-162,38 L-166,37 L-154,36 L-154,34 L-157,35 L-158,33 L-143,33 L-143,31 L-149,31 L-149,29 L-132,29 L-132,27 L-140,27 L-140,25 L-120,25 L-120,23 L-129,23 L-129,21 L-107,21 L-107,19 L-117,19 L-117,17 L-94,16 L-103,15 L-103,13 L-77,12 L-88,11 L-88,9 L-58,9 L-58,7 L-71,7 L-71,5 L-36,5 L-36,3 L-48,3 L-51,1 Z M28,235 L29,238 L52,238 L51,235 Z M-431,310 Z " fill="#E11835" transform="translate(469,0)"/>
<path d="M0,0 L17,0 L17,1 L54,2 L54,3 L49,3 L49,5 L68,6 L64,10 L77,10 L77,12 L75,13 L85,14 L85,16 L83,16 L83,18 L91,18 L90,21 L97,22 L97,24 L95,24 L95,26 L102,26 L102,28 L99,28 L99,30 L107,30 L107,33 L111,34 L111,38 L115,38 L116,42 L119,43 L119,50 L121,50 L121,47 L123,47 L123,54 L127,52 L127,61 L131,58 L132,66 L135,64 L135,76 L136,73 L139,72 L140,84 L143,82 L143,97 L147,98 L147,159 L144,158 L143,173 L141,170 L139,170 L139,183 L135,181 L135,191 L131,189 L131,197 L127,196 L127,203 L125,203 L125,200 L123,200 L123,208 L120,208 L119,212 L115,212 L115,216 L111,216 L111,220 L107,220 L107,224 L103,224 L103,228 L96,228 L96,230 L99,230 L99,232 L91,232 L91,234 L94,235 L94,236 L85,237 L87,238 L87,240 L77,240 L77,242 L80,243 L80,244 L68,244 L69,246 L72,248 L56,248 L56,251 L59,252 L33,252 L33,254 L39,255 L39,256 L3,257 L3,258 L-103,258 L-107,254 L-107,200 L-109,200 L-110,243 L-111,243 L-111,111 L-110,111 L-109,121 L-108,121 L-107,83 L-106,83 L-105,88 L-104,88 L-103,72 L-100,73 L-99,64 L-96,65 L-95,56 L-93,56 L-92,58 L-91,51 L-89,52 L-89,54 L-87,54 L-87,46 L-83,47 L-83,42 L-79,42 L-79,38 L-75,38 L-75,34 L-71,34 L-71,30 L-66,30 L-67,26 L-59,26 L-59,24 L-62,24 L-62,22 L-55,22 L-57,18 L-48,18 L-50,14 L-40,14 L-41,12 L-44,10 L-32,10 L-35,6 L-21,5 L-24,2 L0,1 Z M103,32 L103,34 L105,33 Z M115,44 Z " fill="#E11835" transform="translate(494,385)"/>
<path d="M0,0 L1,0 L1,211 L0,211 Z " fill="#DE1B34" transform="translate(381,805)"/>
<path d="M0,0 L1,0 L1,79 L0,79 L-1,73 L-1,5 Z " fill="#DB1834" transform="translate(1022,468)"/>
<path d="M0,0 L1,0 L2,12 L5,10 L5,23 L4,21 L2,21 L-2,11 L-2,1 Z " fill="#F31B33" transform="translate(632,457)"/>
<path d="M0,0 L53,1 L51,3 L37,4 L36,3 L14,3 L0,2 Z " fill="#E80727" transform="translate(544,0)"/>
<path d="M0,0 L2,1 L2,6 L-2,2 L-2,14 L-6,10 L-5,6 L-3,1 Z " fill="#ED0916" transform="translate(967,742)"/>
<path d="M0,0 L1,0 L1,32 L0,32 Z " fill="#D8212E" transform="translate(642,496)"/>
<path d="M0,0 L32,0 L32,1 L0,1 Z " fill="#E31936" transform="translate(489,383)"/>
<path d="M0,0 L1,0 L1,13 L-1,10 L-3,3 Z " fill="#EC030C" transform="translate(636,467)"/>
<path d="M0,0 L1,0 L1,10 L-2,8 L-3,3 Z " fill="#F10C1C" transform="translate(628,449)"/>
<path d="M0,0 L1,0 L1,11 L-1,11 L-2,4 Z " fill="#EE0D22" transform="translate(960,752)"/>
<path d="M0,0 L1,0 L1,12 L-1,8 L-2,1 Z " fill="#ED040D" transform="translate(632,457)"/>
<path d="M0,0 L10,0 L8,3 L0,2 Z " fill="#E00E24" transform="translate(320,29)"/>
<path d="M0,0 L1,0 L1,9 L-3,5 L-3,3 Z " fill="#EA0D24" transform="translate(624,443)"/>
<path d="M0,0 L1,0 L1,11 L0,11 Z " fill="#DF1D36" transform="translate(238,980)"/>
<path d="M0,0 L2,2 L-1,3 Z " fill="#DD2131" transform="translate(839,908)"/>
<path d="M0,0 L3,3 L0,2 Z " fill="#EB1435" transform="translate(697,316)"/>
<path d="M0,0 L2,1 L1,3 Z " fill="#E80C2C" transform="translate(701,320)"/>
<path d="M0,0 L2,1 L0,2 Z " fill="#E8144C" transform="translate(705,702)"/>
<path d="M0,0 L3,1 Z " fill="#DD1C34" transform="translate(416,644)"/>
<path d="M0,0 Z " fill="#DE1D34" transform="translate(238,543)"/>
<path d="M0,0 L3,1 Z " fill="#DF1834" transform="translate(549,242)"/>
<path d="M0,0 Z " fill="#E22038" transform="translate(238,1005)"/>
<path d="M0,0 Z " fill="#E01E37" transform="translate(238,997)"/>
<path d="M0,0 Z " fill="#DD1C32" transform="translate(238,993)"/>
<path d="M0,0 Z " fill="#E11B32" transform="translate(385,587)"/>
<path d="M0,0 Z " fill="#E8142A" transform="translate(777,469)"/>
<path d="M0,0 Z " fill="#E41F31" transform="translate(918,826)"/>
<path d="M0,0 Z " fill="#E51748" transform="translate(693,715)"/>
<path d="M0,0 Z " fill="#DA2037" transform="translate(982,711)"/>
<path d="M0,0 Z " fill="#E7174B" transform="translate(697,711)"/>
<path d="M0,0 Z " fill="#E7164F" transform="translate(701,707)"/>
<path d="M0,0 Z " fill="#E5144D" transform="translate(702,706)"/>
<path d="M0,0 Z " fill="#E01A31" transform="translate(385,594)"/>
<path d="M0,0 Z " fill="#E01B36" transform="translate(385,503)"/>
<path d="M0,0 Z " fill="#E71435" transform="translate(695,314)"/>
<path d="M0,0 Z " fill="#E91637" transform="translate(694,313)"/>
<path d="M0,0 Z " fill="#E61333" transform="translate(693,312)"/>
<path d="M0,0 Z " fill="#E71737" transform="translate(203,97)"/>
</svg>
