<?xml version="1.0" standalone="no"?>
<!DOCTYPE svg PUBLIC "-//W3C//DTD SVG 20010904//EN"
 "http://www.w3.org/TR/2001/REC-SVG-20010904/DTD/svg10.dtd">
<svg version="1.0" xmlns="http://www.w3.org/2000/svg"
 width="1024.000000pt" height="1024.000000pt" viewBox="0 0 1024.000000 1024.000000"
 preserveAspectRatio="xMidYMid meet">

<g transform="translate(0.000000,1024.000000) scale(0.100000,-0.100000)"
fill="#000000" stroke="none">
<path d="M4650 10190 c-36 -4 -114 -13 -175 -19 -60 -7 -132 -17 -160 -22 -27
-5 -79 -14 -115 -20 -61 -9 -86 -14 -212 -40 -29 -5 -74 -17 -99 -25 -26 -8
-69 -17 -95 -20 -27 -4 -58 -12 -70 -19 -11 -7 -43 -17 -70 -21 -27 -4 -58
-13 -69 -19 -11 -7 -41 -16 -66 -19 -26 -4 -55 -13 -65 -21 -11 -8 -28 -15
-39 -15 -12 0 -38 -9 -60 -20 -22 -11 -45 -20 -51 -20 -19 0 -154 -56 -167
-69 -6 -6 -20 -11 -30 -11 -10 0 -31 -6 -45 -14 -15 -8 -108 -54 -207 -102
-99 -48 -182 -91 -185 -94 -5 -7 -110 -68 -160 -93 -47 -23 -160 -100 -160
-109 0 -4 -6 -8 -13 -8 -15 0 -38 -16 -197 -138 -41 -31 -93 -69 -115 -84 -22
-15 -56 -42 -76 -60 -20 -18 -62 -55 -95 -83 -32 -27 -76 -66 -99 -85 -79 -69
-402 -397 -491 -501 -51 -58 -122 -146 -160 -195 -37 -49 -70 -91 -74 -94 -3
-3 -22 -30 -43 -60 -20 -30 -60 -86 -87 -125 -27 -38 -54 -77 -60 -85 -49 -75
-60 -92 -60 -99 0 -5 -6 -13 -13 -19 -6 -6 -27 -39 -46 -74 -18 -35 -44 -81
-57 -103 -13 -22 -31 -53 -39 -70 -8 -16 -19 -37 -24 -45 -5 -8 -37 -73 -71
-145 -34 -71 -70 -147 -81 -167 -10 -20 -19 -45 -19 -54 0 -10 -6 -25 -13 -33
-8 -9 -21 -36 -29 -61 -29 -84 -41 -115 -59 -156 -11 -23 -19 -50 -19 -60 0
-11 -6 -28 -14 -39 -7 -11 -17 -40 -21 -65 -4 -24 -13 -54 -20 -65 -7 -11 -16
-40 -20 -65 -4 -25 -13 -56 -20 -70 -7 -14 -15 -49 -19 -79 -4 -30 -14 -67
-22 -82 -7 -15 -14 -40 -14 -56 0 -15 -9 -63 -19 -108 -20 -84 -34 -161 -51
-285 -6 -41 -18 -122 -26 -180 -8 -58 -19 -233 -25 -390 -5 -157 -15 -352 -21
-435 -9 -110 -13 -758 -15 -2458 -3 -2271 -3 -2309 16 -2333 11 -14 23 -38 26
-54 l7 -30 1096 0 1097 0 20 42 c20 41 20 61 19 2322 -1 1255 2 2385 6 2511
10 316 28 569 44 635 8 30 16 82 20 115 3 34 12 77 21 98 8 20 15 50 15 67 0
17 7 47 16 68 8 20 19 55 24 77 10 46 36 122 62 181 10 22 18 45 18 50 0 8 32
80 52 114 4 8 11 22 14 30 11 29 65 136 101 200 107 194 283 422 463 600 161
159 260 242 400 335 25 17 50 34 55 38 25 20 123 79 158 94 20 9 37 19 37 24
0 4 13 10 29 14 16 3 35 12 41 20 6 8 24 17 40 20 16 3 34 12 40 20 6 7 26 16
44 19 19 4 39 13 46 21 7 8 20 15 29 15 9 0 34 9 56 20 22 11 45 20 53 20 7 0
34 8 60 19 88 34 231 73 337 92 33 6 98 18 145 27 125 25 667 24 756 -1 34 -9
77 -17 95 -17 19 0 66 -8 104 -19 39 -10 90 -24 115 -31 92 -24 146 -41 177
-55 17 -8 39 -15 50 -15 10 0 27 -6 38 -14 11 -7 31 -17 45 -21 29 -8 108 -42
130 -56 8 -5 26 -14 40 -20 42 -17 123 -59 165 -84 22 -13 54 -31 70 -40 17
-8 39 -21 50 -28 345 -212 690 -557 905 -906 25 -40 55 -89 68 -107 12 -19 22
-40 22 -45 0 -6 9 -22 20 -36 11 -14 20 -32 20 -40 0 -8 9 -26 20 -40 11 -14
20 -34 20 -43 0 -10 6 -23 14 -29 8 -7 17 -27 20 -45 4 -19 13 -39 21 -46 8
-7 15 -22 15 -34 0 -11 7 -34 16 -51 9 -16 22 -50 29 -75 7 -25 18 -58 23 -75
35 -95 93 -338 92 -385 0 -19 7 -62 16 -95 10 -40 17 -132 21 -280 5 -210 1
-285 -27 -460 -18 -117 -48 -260 -62 -300 -6 -16 -16 -55 -23 -85 -7 -30 -20
-68 -29 -85 -9 -16 -16 -38 -16 -48 0 -9 -9 -34 -20 -54 -11 -21 -20 -43 -20
-50 0 -7 -9 -30 -20 -50 -11 -21 -20 -45 -20 -54 0 -9 -7 -22 -15 -29 -8 -7
-15 -18 -15 -24 0 -21 -111 -228 -175 -326 -23 -36 -48 -76 -55 -90 -7 -14
-28 -44 -46 -67 -19 -23 -34 -44 -34 -48 0 -16 -213 -267 -306 -360 -104 -104
-255 -231 -344 -290 -25 -17 -47 -33 -50 -36 -3 -3 -48 -30 -100 -60 -52 -29
-96 -57 -98 -61 -2 -5 -8 -8 -14 -8 -10 0 -117 -48 -223 -100 -22 -11 -47 -20
-55 -20 -8 0 -32 -9 -53 -20 -20 -11 -47 -20 -59 -20 -13 -1 -41 -9 -63 -20
-22 -11 -51 -19 -65 -20 -14 0 -51 -9 -83 -20 -31 -11 -69 -20 -85 -20 -16 0
-51 -7 -78 -15 -27 -8 -102 -19 -166 -24 -65 -6 -123 -13 -130 -18 -7 -4 -322
-10 -699 -13 -653 -5 -688 -6 -708 -24 -50 -45 -49 -38 -49 -1116 0 -619 4
-1020 10 -1045 5 -22 12 -52 15 -68 l5 -27 905 0 c555 0 902 4 898 9 -9 16 7
20 123 31 62 6 124 15 139 21 16 6 64 14 107 19 43 5 97 16 120 24 23 7 65 19
94 25 28 6 76 16 105 22 28 6 68 17 87 25 19 8 53 18 75 23 47 11 128 38 170
57 17 7 47 16 67 20 21 3 42 12 49 20 6 8 19 14 28 14 9 0 34 9 56 20 22 11
43 20 49 20 16 0 396 186 481 236 22 12 49 27 60 32 11 5 45 26 75 46 30 20
60 36 67 36 7 0 16 6 20 14 7 12 22 22 99 64 13 7 24 17 24 23 0 5 5 9 11 9 6
0 38 19 70 43 110 78 324 239 341 256 26 25 49 44 82 69 74 55 126 102 296
267 148 144 346 356 389 418 8 12 22 28 30 37 9 8 32 37 51 63 19 27 58 78 85
115 43 57 99 137 188 271 9 14 24 41 32 59 8 17 20 32 25 32 6 0 10 5 10 12 0
6 26 57 58 112 32 56 83 153 114 216 53 109 71 149 119 258 11 26 29 66 40 90
10 23 19 47 19 53 0 6 7 25 15 42 18 41 43 110 60 167 7 25 20 62 29 82 9 21
16 48 16 60 0 13 7 33 15 45 8 11 17 40 21 64 4 24 13 56 20 70 7 14 16 50 20
80 4 30 13 63 20 74 6 11 15 49 19 84 4 35 13 78 20 95 7 17 15 62 19 100 4
38 12 78 17 89 6 11 15 69 20 129 6 60 15 121 20 136 6 15 15 110 19 212 5
102 12 245 15 318 7 138 -11 637 -25 732 -5 30 -14 91 -20 135 -6 44 -18 106
-26 137 -7 31 -17 83 -20 115 -4 32 -12 69 -19 83 -7 14 -16 50 -20 80 -4 30
-14 67 -21 82 -8 15 -14 37 -14 50 -1 13 -8 41 -16 63 -9 22 -20 60 -26 85 -6
25 -17 54 -24 65 -8 11 -14 30 -14 44 0 13 -8 42 -19 65 -50 110 -61 137 -61
148 0 6 -8 29 -19 52 -10 23 -29 66 -41 96 -12 30 -26 62 -31 70 -5 8 -12 22
-15 30 -19 45 -95 209 -113 240 -4 8 -13 25 -19 38 -7 12 -17 32 -24 45 -6 12
-15 29 -20 37 -5 8 -16 32 -25 53 -9 20 -19 37 -23 37 -5 0 -11 11 -14 24 -3
14 -12 31 -19 38 -7 7 -18 24 -25 38 -7 14 -23 43 -37 65 -13 22 -31 55 -40
73 -8 17 -20 32 -25 32 -6 0 -10 4 -10 10 0 8 -36 67 -58 95 -4 6 -22 33 -40
60 -49 77 -56 87 -67 99 -6 6 -26 33 -45 60 -19 28 -42 57 -50 66 -8 10 -24
30 -35 45 -32 46 -97 129 -114 146 -9 9 -43 47 -76 85 -33 38 -96 106 -140
152 -44 46 -82 87 -85 90 -6 8 -177 164 -234 213 -21 19 -49 43 -62 54 -32 28
-54 45 -174 135 -58 44 -117 89 -132 100 -14 11 -31 20 -37 20 -6 0 -11 4 -11
8 0 9 -114 86 -160 109 -14 7 -34 18 -45 25 -11 7 -43 27 -71 45 -29 18 -63
38 -75 43 -13 6 -60 31 -104 54 -97 53 -194 101 -358 176 -49 22 -91 40 -95
40 -8 0 -106 37 -147 56 -37 17 -106 42 -165 60 -98 29 -146 46 -170 59 -14 7
-47 16 -75 20 -27 4 -61 13 -75 20 -14 7 -46 15 -72 19 -26 4 -60 13 -75 20
-15 8 -56 17 -90 20 -35 4 -79 14 -98 21 -19 8 -52 15 -73 15 -21 0 -61 7 -88
15 -27 8 -98 19 -159 25 -60 5 -126 15 -145 21 -40 14 -852 21 -960 9z"/>
<path d="M4850 6310 c-36 -10 -74 -19 -85 -19 -45 -2 -244 -93 -345 -159 -176
-115 -312 -266 -397 -443 -46 -95 -63 -154 -78 -259 -7 -52 -18 -126 -25 -164
-10 -53 -12 -230 -8 -723 2 -359 8 -656 12 -660 12 -12 738 -7 956 7 107 6
252 15 321 19 69 4 131 11 138 15 6 4 47 14 89 21 307 54 600 264 757 544 64
112 98 187 113 246 6 22 15 54 21 70 20 60 44 269 38 350 -8 121 -33 262 -61
335 -13 36 -30 83 -39 105 -40 108 -156 285 -247 375 -67 68 -145 129 -225
177 -43 26 -145 73 -157 73 -8 0 -22 6 -33 14 -11 7 -36 17 -55 21 -19 4 -55
13 -80 21 -84 26 -244 46 -395 50 -125 3 -161 0 -215 -16z"/>
</g>
</svg>
