<?xml version="1.0" standalone="no"?>
<!DOCTYPE svg PUBLIC "-//W3C//DTD SVG 20010904//EN"
 "http://www.w3.org/TR/2001/REC-SVG-20010904/DTD/svg10.dtd">
<svg version="1.0" xmlns="http://www.w3.org/2000/svg"
 width="1024.000000pt" height="1024.000000pt" viewBox="0 0 1024.000000 1024.000000"
 preserveAspectRatio="xMidYMid meet">

<g transform="translate(0.000000,1024.000000) scale(0.100000,-0.100000)"
fill="#000000" stroke="none">
<path d="M4640 10190 c-30 -4 -104 -13 -165 -19 -60 -7 -132 -17 -160 -22 -27
-5 -79 -14 -115 -20 -61 -9 -86 -14 -212 -40 -29 -5 -74 -17 -99 -25 -26 -8
-69 -17 -95 -20 -27 -4 -58 -12 -70 -19 -11 -7 -43 -16 -70 -20 -27 -4 -58
-12 -69 -19 -11 -6 -42 -16 -70 -22 -48 -12 -72 -20 -230 -79 -38 -14 -84 -30
-101 -36 -18 -5 -37 -16 -44 -24 -7 -8 -21 -15 -32 -15 -11 0 -32 -6 -46 -14
-15 -8 -108 -54 -207 -102 -99 -49 -198 -101 -221 -116 -22 -15 -52 -32 -65
-38 -64 -30 -219 -130 -219 -142 0 -4 -6 -8 -13 -8 -15 0 -38 -16 -197 -138
-41 -31 -93 -69 -115 -84 -22 -15 -56 -42 -76 -60 -20 -18 -62 -55 -95 -83
-32 -27 -76 -66 -99 -85 -78 -68 -401 -397 -480 -489 -44 -52 -85 -99 -91
-105 -6 -7 -42 -52 -80 -101 -37 -50 -72 -94 -76 -100 -14 -17 -121 -168 -153
-215 -16 -25 -33 -47 -36 -50 -3 -3 -14 -18 -23 -35 -9 -16 -24 -42 -34 -57
-9 -14 -32 -53 -50 -85 -18 -32 -37 -65 -43 -73 -5 -8 -16 -28 -25 -45 -8 -16
-26 -48 -39 -70 -14 -22 -29 -51 -35 -65 -6 -14 -36 -77 -66 -140 -31 -63 -64
-133 -74 -155 -9 -22 -25 -56 -33 -75 -9 -19 -23 -53 -31 -75 -7 -22 -19 -56
-26 -75 -7 -19 -21 -53 -31 -76 -11 -23 -19 -50 -19 -60 0 -11 -6 -28 -14 -39
-7 -11 -17 -40 -21 -65 -4 -25 -13 -54 -20 -65 -7 -11 -16 -41 -20 -65 -4 -25
-13 -56 -20 -70 -7 -14 -15 -50 -19 -80 -4 -30 -12 -60 -17 -67 -6 -6 -15 -44
-20 -83 -6 -39 -17 -89 -25 -112 -8 -22 -14 -57 -14 -77 0 -20 -7 -62 -15 -93
-8 -30 -19 -104 -25 -163 -6 -59 -15 -130 -21 -158 -8 -46 -15 -195 -34 -710
-3 -86 -10 -168 -15 -182 -6 -16 -10 -892 -10 -2344 0 -2051 2 -2320 15 -2331
8 -7 20 -30 27 -51 l11 -39 1096 0 1096 0 20 42 c20 41 20 61 19 2322 -1 1255
2 2385 6 2511 11 319 28 570 44 635 8 30 16 82 20 115 3 34 12 77 21 98 8 20
15 50 15 67 0 17 7 47 16 68 8 20 19 55 24 77 10 46 36 122 62 181 10 22 18
45 18 50 0 8 32 79 52 114 4 8 13 26 18 40 6 14 15 32 20 40 6 8 13 22 16 30
18 48 93 183 112 202 6 6 12 15 12 20 0 13 83 130 179 253 89 114 289 321 397
411 60 51 163 129 224 169 25 17 50 34 55 38 24 19 123 78 158 93 20 9 37 20
37 24 0 5 13 11 29 15 16 3 35 12 41 20 6 8 24 17 40 20 16 3 34 12 40 20 6 7
26 16 44 19 19 4 39 13 46 21 7 8 19 15 28 15 9 0 34 8 56 18 53 24 132 51
176 62 19 5 55 15 80 24 56 19 118 33 195 47 33 6 98 18 145 27 125 25 666 24
756 -1 34 -9 77 -17 96 -17 19 0 59 -7 89 -16 30 -9 79 -22 109 -30 88 -20
162 -43 197 -59 17 -8 39 -15 50 -15 10 0 27 -6 38 -14 11 -7 31 -17 45 -21
29 -8 108 -42 130 -56 8 -5 26 -14 40 -20 42 -17 123 -59 165 -84 22 -13 54
-31 70 -40 44 -23 165 -100 200 -127 6 -5 48 -38 95 -76 81 -64 104 -83 208
-177 65 -58 260 -279 324 -366 73 -99 158 -229 195 -300 17 -31 38 -67 47 -80
9 -13 16 -30 16 -37 0 -8 9 -25 20 -39 11 -14 20 -34 20 -43 0 -10 6 -23 14
-29 8 -7 17 -27 20 -45 4 -19 13 -39 21 -46 8 -7 15 -22 15 -34 0 -11 7 -34
16 -51 9 -16 22 -50 29 -75 7 -25 17 -58 23 -75 39 -115 93 -337 92 -383 0
-18 8 -65 18 -105 25 -105 25 -579 0 -684 -10 -40 -18 -90 -18 -111 0 -22 -9
-68 -20 -102 -11 -34 -20 -75 -20 -90 0 -15 -9 -47 -20 -71 -11 -24 -20 -55
-20 -69 0 -14 -9 -43 -20 -65 -11 -22 -20 -47 -20 -57 0 -10 -9 -35 -20 -55
-11 -21 -20 -43 -20 -50 0 -7 -9 -30 -20 -50 -11 -21 -20 -45 -20 -54 0 -9 -6
-22 -14 -28 -8 -7 -18 -25 -21 -41 -3 -16 -13 -34 -21 -41 -8 -6 -14 -19 -14
-28 0 -9 -9 -27 -20 -41 -11 -14 -20 -28 -20 -33 0 -7 -50 -96 -80 -142 -8
-12 -30 -49 -49 -81 -73 -125 -273 -376 -406 -507 -105 -106 -256 -233 -345
-292 -25 -17 -47 -33 -50 -36 -3 -3 -48 -30 -100 -60 -52 -29 -96 -57 -98 -61
-2 -5 -8 -8 -14 -8 -10 0 -117 -48 -223 -100 -22 -11 -47 -20 -55 -20 -8 0
-32 -9 -53 -20 -20 -11 -47 -20 -59 -20 -13 -1 -41 -9 -63 -20 -22 -11 -51
-19 -65 -20 -14 0 -51 -9 -83 -20 -31 -11 -69 -20 -85 -20 -16 0 -51 -7 -79
-15 -28 -8 -103 -19 -167 -24 -64 -6 -122 -14 -129 -18 -6 -4 -321 -10 -698
-13 -653 -5 -688 -6 -708 -24 -50 -45 -49 -37 -49 -1116 0 -622 4 -1020 10
-1045 5 -22 12 -52 15 -68 l5 -27 905 0 c555 0 902 4 898 9 -9 16 7 20 123 31
62 6 124 15 139 21 16 6 64 14 107 19 43 5 97 16 120 24 23 7 65 19 94 25 28
6 76 16 105 22 28 6 68 17 87 25 19 8 53 18 75 23 47 11 128 38 170 57 17 7
47 16 67 20 21 3 42 12 49 20 6 8 19 14 28 14 9 0 34 9 56 20 22 11 43 20 49
20 16 0 391 184 481 236 22 13 54 30 70 39 17 8 44 24 60 35 17 11 43 27 59
36 16 9 34 20 40 25 24 20 87 59 96 59 5 0 13 6 17 13 4 6 19 18 33 26 28 15
49 30 240 173 74 55 143 108 152 117 26 25 49 44 82 69 113 83 430 389 562
541 22 25 47 53 56 62 22 23 169 209 232 294 42 56 87 122 189 274 9 14 24 41
32 59 8 17 19 32 24 32 5 0 12 11 15 24 3 14 12 31 19 38 6 8 19 27 29 43 29
53 175 348 197 400 23 52 43 97 79 178 12 26 22 52 22 58 0 6 7 25 15 42 14
31 31 76 54 145 6 17 16 47 22 65 6 17 16 50 21 72 5 22 16 53 24 68 8 16 17
47 20 70 4 23 13 54 20 68 7 14 16 50 20 80 4 30 13 63 20 74 6 11 15 49 19
85 4 36 12 74 17 84 6 10 15 53 20 95 5 42 15 94 22 116 7 22 16 82 20 133 4
51 12 105 17 120 6 15 18 167 26 337 12 253 12 362 3 590 -7 154 -16 305 -20
335 -5 30 -14 91 -20 135 -6 44 -16 100 -22 125 -6 25 -16 79 -22 120 -7 41
-17 84 -23 95 -6 11 -14 45 -18 75 -4 30 -13 68 -21 84 -8 16 -14 39 -14 50
-1 12 -8 39 -16 61 -9 22 -20 60 -26 85 -6 25 -17 54 -24 65 -8 11 -14 31 -14
45 0 14 -9 42 -20 63 -11 20 -20 43 -20 50 0 7 -9 29 -20 50 -11 20 -20 44
-20 52 0 9 -9 33 -19 53 -11 20 -29 62 -41 92 -12 30 -26 62 -31 70 -5 8 -12
22 -15 30 -35 85 -137 294 -176 360 -5 8 -16 32 -25 53 -9 20 -19 37 -23 37
-5 0 -11 11 -14 24 -3 14 -12 31 -19 38 -7 7 -18 24 -25 38 -7 14 -23 43 -37
65 -13 22 -31 55 -40 73 -8 17 -20 32 -25 32 -6 0 -10 4 -10 10 0 8 -36 67
-58 95 -4 6 -22 33 -40 60 -49 77 -56 87 -67 99 -6 6 -26 33 -45 60 -19 28
-42 57 -50 66 -8 9 -22 27 -30 40 -19 28 -101 132 -120 152 -8 8 -42 46 -75
84 -33 38 -96 106 -140 152 -44 46 -82 87 -85 90 -3 4 -50 48 -105 97 -54 50
-106 97 -115 105 -41 38 -134 116 -147 124 -9 4 -59 41 -112 82 -53 40 -108
83 -123 94 -14 11 -31 20 -37 20 -6 0 -11 4 -11 8 0 8 -91 70 -155 106 -16 9
-39 22 -49 29 -66 42 -129 79 -148 88 -13 5 -59 30 -103 54 -158 87 -363 181
-510 235 -33 13 -78 31 -101 41 -23 11 -48 19 -55 19 -8 0 -23 6 -34 14 -11 7
-40 18 -65 24 -53 12 -135 40 -170 57 -14 7 -47 16 -75 20 -27 4 -62 13 -77
21 -15 8 -36 14 -47 14 -12 0 -47 9 -78 19 -32 11 -81 22 -110 25 -29 4 -71
13 -94 21 -23 8 -58 15 -78 15 -20 0 -69 9 -110 20 -41 11 -100 20 -130 20
-31 0 -87 8 -126 17 -59 14 -140 17 -505 18 -239 1 -460 -1 -490 -5z"/>
<path d="M4885 6319 c-16 -5 -55 -14 -85 -20 -68 -13 -141 -40 -245 -91 -247
-123 -425 -297 -532 -519 -46 -95 -63 -154 -78 -259 -7 -52 -18 -126 -25 -164
-19 -107 -9 -1374 11 -1387 31 -19 638 -8 1144 21 174 10 355 36 430 62 17 5
50 15 75 22 25 7 54 18 65 24 11 6 45 23 75 38 185 91 362 260 465 443 64 112
98 187 113 246 6 22 15 54 21 70 22 64 44 270 38 355 -12 161 -41 302 -82 395
-45 102 -104 213 -137 257 -21 28 -38 54 -38 58 0 21 -180 188 -266 248 -50
34 -188 102 -208 102 -8 0 -18 4 -21 10 -3 5 -25 14 -48 20 -23 6 -64 17 -92
25 -139 40 -508 69 -580 44z"/>
</g>
</svg>
