<svg xmlns="http://www.w3.org/2000/svg" width="1024" height="1024"><path fill="#fff" fill-rule="evenodd" d="M667.447 159.729c4.37 4.516 8.128 8.029 8.35 7.808.417-.417-2.893-3.769-11.383-11.528-2.703-2.47-1.338-.796 3.033 3.72M678.195 228c-.03 31.075.308 55.6.752 54.5 1.068-2.651 1.185-100.718.127-106.5-.478-2.609-.847 19.239-.879 52M417.5 376.591c-26.259 5.872-49.172 24.926-62.986 52.375-8.315 16.524-15.028 39.938-18.084 63.069-2.341 17.724-1.537 40.906 1.874 54.029 6.459 24.847 21.266 41.875 42.191 48.519 22.479 7.138 44.861 4.792 64.191-6.728 11.282-6.724 24.752-21.882 31.763-35.744 3.017-5.965 9.551-25.172 9.551-28.076 0-1.125-4.524-5.706-11.547-11.693-6.352-5.413-11.976-9.992-12.5-10.175-.524-.183-1.238.492-1.588 1.5-11.711 33.772-29.19 51.137-47.514 47.208-6.594-1.414-12.876-7.54-15.525-15.139-2.771-7.947-2.5-35.231.5-50.369 6.855-34.594 17.9-58.105 30.256-64.409 7.306-3.727 11.854-2.311 14.457 4.504 1.492 3.907 1.564 5.484.557 12.261-.954 6.426-5.313 20.952-8.56 28.527-.695 1.622.37 1.753 14.607 1.788 8.446.02 20.832.287 27.523.592 14.527.663 13.774 1.26 17.825-14.13 10.335-39.265-3.786-67.588-38.191-76.599-10.638-2.787-29.368-3.419-38.8-1.31m194.191-.612c-17.755 3.219-34.994 12.945-48.187 27.186-16.362 17.661-27.389 42.723-34.182 77.686-2.332 12.003-2.654 16.121-2.672 34.149-.02 19.089.163 21.188 2.649 30.5 7.451 27.901 22.853 44.207 47.877 50.687 12.075 3.127 29.551 3.097 39.789-.068 28.554-8.826 49.174-31.387 58.089-63.556 1.07-3.862 1.946-7.788 1.946-8.723 0-1.591-22.189-21.84-23.933-21.84-.439 0-1.811 2.813-3.047 6.25-4.921 13.681-14.025 28.386-21.939 35.436-8.318 7.41-20.513 9.716-28.83 5.453-12.032-6.169-16.115-27.002-11.176-57.026 5.343-32.473 13.553-54.521 24.465-65.697 5.764-5.904 11.719-8.405 16.263-6.83 3.32 1.152 6.193 6.58 6.195 11.706.003 6.242-2.92 18.661-6.515 27.678-1.857 4.658-3.288 8.537-3.18 8.618.108.082 12.664.401 27.902.708l27.705.559 2.152-5.677c6.411-16.923 7.679-40.054 2.887-52.678-6.544-17.239-18.423-27.273-38.607-32.608-8.784-2.321-27.776-3.34-35.651-1.913M556.104 637.83c-1.856 1.288-1.438 2.097 6.802 13.17 3.888 5.225 7.075 10.007 7.081 10.626.007.62-4.375 2.937-9.737 5.149-51.625 21.303-95.651 18.266-151.432-10.444-7.074-3.641-13.008-6.443-13.187-6.226-.179.217-4.015 7.299-8.525 15.736-6.854 12.824-7.992 15.591-6.935 16.865 2.349 2.831 19.257 13.295 30.329 18.771 20.094 9.939 43.208 16.921 64.813 19.579 15.358 1.889 43.298.712 58.299-2.457 19.387-4.095 37.614-11.183 52.842-20.55l6.953-4.277 2.547 2.977c1.4 1.637 5.021 6.485 8.046 10.773 7.966 11.291 9.674 13.161 10.911 11.948 1.035-1.016 20.089-76.777 20.089-79.875 0-1.415-2.687-1.595-23.841-1.595-13.113 0-30.55-.256-38.75-.569-8.974-.342-15.465-.184-16.305.399M355.25 832.75c84.562.141 222.937.141 307.5 0 84.562-.141 15.375-.256-153.75-.256s-238.313.115-153.75.256"/><path fill="#040404" fill-rule="evenodd" d="M650.788 150.546c-.3.3-14.438 5.288-31.417 11.086A725334.46 725334.46 0 0 1 548 185.994c-22.275 7.601-57.6 19.672-78.5 26.823-54.825 18.76-164.888 56.337-186.5 63.674-48.967 16.623-76.146 25.891-82.831 28.245-7.18 2.528-7.552 2.833-18.161 14.888l-10.831 12.308-.644 7.284c-.354 4.006-.506 111.262-.338 238.346l.305 231.062 11 11.682 11 11.683 318.148.005 318.148.006 6.352-6.108c3.494-3.359 8.939-8.376 12.102-11.15L853 809.7V321.212l-7.75-6.884c-4.263-3.786-9.453-8.333-11.535-10.106L829.93 301h-87.538c-82.83 0-87.521-.094-87.207-1.75.183-.962 2.485-3.1 5.117-4.75s7.578-4.8 10.991-7l6.207-4 .258-56.382.259-56.382-10.759-10.332c-7.878-7.565-11.45-10.341-13.341-10.368-1.421-.02-2.829.21-3.129.51M416.5 376.474c-25.39 5.566-48.672 25.121-62.477 52.478-4.552 9.021-9.49 23.051-12.962 36.827-12.513 49.658-6.961 92.445 14.809 114.136 19.704 19.632 55.242 24.891 81.63 12.081 13.711-6.656 27.288-19.236 35.406-32.804 6.92-11.567 13.988-31.857 12.668-36.365-.711-2.426-20.53-19.741-23.479-20.512-1.311-.343-2.099.861-3.515 5.371-2.588 8.244-8.568 19.772-14.012 27.013-16.52 21.973-40.348 21.796-47.206-.352-6.16-19.896 1.637-68.102 15.292-94.541 5.461-10.573 11.212-16.826 17.785-19.336 4.306-1.644 5.089-1.684 7.423-.374 4.305 2.416 5.292 5.464 4.831 14.917-.317 6.512-1.283 10.976-4.112 19-2.033 5.768-3.93 11.206-4.215 12.084-.698 2.148 8.49 2.903 35.336 2.903h20.4l1.467-3.511c3.475-8.318 6.428-23.947 6.43-34.029.002-17.315-4.264-28.951-14.225-38.801-11.957-11.823-28.622-17.723-49.652-17.58-6.392.044-14.322.672-17.622 1.395m190 .441c-22.07 5.572-39.793 18.666-53.841 39.778-16.126 24.235-26.665 62.957-26.655 97.935.013 44.764 16.005 71.543 48.483 81.19 10.804 3.208 28.045 4.006 38.513 1.782 9.546-2.029 21.848-7.918 29.518-14.131 16.738-13.56 26.418-28.628 33.025-51.41 2.005-6.914 2.222-8.753 1.202-10.169-2.664-3.699-22.848-20.065-24.135-19.57-.744.285-1.667 1.792-2.051 3.349-1.276 5.177-9.466 21.447-13.981 27.774-7.627 10.688-15.419 16.159-24.555 17.241-7.131.844-11.66-.361-15.963-4.249-10.784-9.743-12.626-31.775-5.485-65.597 5.638-26.706 12.241-43.147 21.292-53.02 11.825-12.898 22.603-10.718 22.437 4.54-.078 7.247-2.439 17.299-6.449 27.46-1.589 4.025-2.683 7.652-2.431 8.059.252.408 12.825.861 27.941 1.009 31.749.309 28.014 1.739 32.078-12.286 6.79-23.432 4.989-42.762-5.434-58.336-9.778-14.608-30.456-23.345-54.887-23.19-7.578.048-14.058.688-18.622 1.841m-50.761 260.679c-1.561 1.561-.502 3.68 6.78 13.563 4.225 5.734 7.14 10.584 6.655 11.069-1.64 1.64-23.129 9.801-32.388 12.3-14.587 3.937-26.148 5.466-41.36 5.47-27.636.008-51.892-6.556-83.627-22.631-8.163-4.134-15.338-7.352-15.945-7.15-1.249.417-16.813 29.593-16.838 31.565-.025 1.988 19.015 13.86 33.452 20.857 60.081 29.122 126.618 26.407 179.11-7.307 1.96-1.259 2.586-.626 11 11.123 8.032 11.215 11.545 14.757 13.098 13.204.978-.977 20.346-80.969 19.749-81.565-.875-.876-78.821-1.363-79.686-.498"/><path fill="#d0f370" fill-rule="evenodd" d="M0 512.001v512.001l512.25-.251 512.25-.251.251-511.75.251-511.75H0v512.001m.496.499c0 281.6.114 396.651.254 255.668.14-140.982.14-371.382 0-512C.61 115.551.496 230.9.496 512.5m648.16-361.25c.476.772-1.782 1.186-4.964.91-1.146-.1-1.544.271-1.086 1.011.485.785.176.959-.942.53-.915-.351-1.664-.224-1.664.283 0 1.103-6.95 3.165-8.156 2.419-.464-.286-.844-.059-.844.507 0 .565-.675.768-1.5.452-.825-.317-1.5-.092-1.5.5s-.748.788-1.664.437c-1.216-.467-1.441-.278-.836.701.605.979.38 1.168-.836.701-.915-.351-1.664-.172-1.664.398 0 .601-.892.753-2.125.361-1.575-.5-1.921-.343-1.336.603.561.908.308 1.092-.875.638-.916-.351-1.664-.155-1.664.437s-.646.828-1.435.525c-.79-.303-1.591-.084-1.781.485-.19.57-1.569 1.107-3.064 1.194-1.495.087-2.719.526-2.719.975-.001.45-.957.514-2.126.143-1.526-.484-1.914-.332-1.375.54.545.882.135 1.019-1.5.5-1.686-.535-2.053-.394-1.461.563.561.908.308 1.092-.875.638-.916-.351-1.664-.155-1.664.437s-.675.817-1.5.5c-.825-.316-1.5-.064-1.5.56 0 .624-.296.839-.658.477-.362-.362-1.273-.147-2.024.476-.752.624-1.634.866-1.961.539-.327-.327-1.284.094-2.125.935-.842.842-2.364 1.312-3.382 1.046-1.019-.267-1.647-.152-1.396.254.655 1.061-10.246 4.321-11.617 3.474-.759-.469-.87-.261-.327.616.594.962.362 1.15-.846.686-.915-.351-1.664-.172-1.664.398 0 .601-.892.753-2.125.361-1.43-.454-1.902-.312-1.441.433.679 1.098-1.127 1.581-4.742 1.267-1.146-.1-1.544.271-1.086 1.011.485.785.176.959-.942.53-.915-.351-1.664-.172-1.664.398 0 .601-.892.753-2.125.361-1.43-.454-1.902-.312-1.441.433.63 1.019-.832 1.5-4.184 1.376-.687-.026-1.25.428-1.25 1.009 0 .58-.296.759-.658.397-.362-.362-1.262-.156-2 .456-.738.613-1.349.721-1.357.241-.009-.479-.419-.235-.912.545-.494.779-2.267 1.416-3.941 1.416s-2.782.424-2.463.941c.339.547-.306.659-1.544.266-1.233-.392-2.125-.24-2.125.361 0 .57-.749.749-1.664.398-1.119-.43-1.427-.256-.941.531.674 1.091-.697 1.567-4.145 1.439-.687-.026-1.25.401-1.25.949 0 .548-.675.737-1.5.42-.825-.316-1.5-.091-1.5.5 0 .592-.646.828-1.435.525-.79-.303-1.591-.084-1.781.485-.19.57-1.569 1.107-3.064 1.194-1.495.087-2.719.571-2.719 1.075-.001.504-.297.62-.659.258-.362-.362-1.273-.147-2.024.476-.752.624-1.634.866-1.961.539-.327-.327-1.284.094-2.125.935-.842.842-2.364 1.312-3.382 1.046-1.019-.267-1.63-.124-1.358.316.656 1.061-4.275 2.265-5.692 1.389-.722-.446-.823-.222-.29.639.594.962.362 1.15-.846.686-.922-.354-1.664-.154-1.664.447 0 .597-.901.85-2.001.562-1.274-.333-1.76-.132-1.336.553.421.681.054.842-.999.438-.922-.354-1.664-.154-1.664.447 0 .597-.901.85-2.001.562-1.274-.333-1.76-.132-1.336.553.421.681.054.842-.999.438-.915-.351-1.664-.244-1.664.237s-.97.621-2.156.311c-1.618-.423-1.952-.232-1.336.763.596.966.366 1.154-.844.689-.915-.351-1.664-.216-1.664.299s-.749.65-1.664.299c-1.119-.43-1.427-.256-.941.531.666 1.078-1.153 1.587-5.145 1.439-.687-.026-1.25.38-1.25.901s-.45.67-1 .33-1-.093-1 .548-.675.907-1.5.59c-.825-.316-1.5-.091-1.5.5 0 .592-.675.817-1.5.5-.825-.316-1.5-.109-1.5.461 0 .601-.892.753-2.125.361-1.575-.5-1.921-.343-1.336.603.561.908.308 1.092-.875.638-.916-.351-1.664-.155-1.664.437s-.675.817-1.5.5c-.825-.316-1.5-.091-1.5.5 0 .592-.675.817-1.5.5-.825-.316-1.5-.109-1.5.461 0 .601-.892.753-2.125.361-1.526-.484-1.914-.332-1.375.54.545.882.135 1.019-1.5.5-1.686-.535-2.053-.394-1.461.563.555.897.314 1.095-.81.663-.88-.337-1.755-.147-1.945.422-.19.57-1.569 1.107-3.064 1.194-1.495.087-2.719.458-2.719.825-.002 1.155-21.892 8.018-23.131 7.253-.667-.413-.915-.301-.57.257.761 1.231-9.896 4.691-11.463 3.722-.759-.469-.87-.261-.327.616.594.962.362 1.15-.846.686-.915-.351-1.664-.172-1.664.398 0 .601-.892.753-2.125.361-1.317-.418-1.89-.293-1.506.328.713 1.153-2.096 2.498-3.459 1.656-.501-.309-.91-.055-.91.564 0 .707-.839.869-2.25.435-1.238-.38-1.888-.311-1.446.154.923.969-9.101 4.646-10.429 3.826-.481-.298-.875-.012-.875.635 0 .683-.838.956-2.001.652-1.206-.315-1.753-.12-1.375.49.397.643-.197.753-1.624.3-1.635-.519-2.045-.382-1.5.5.531.859.17 1.03-1.234.584-2.462-.781-5.471.276-4.635 1.628.389.629-.218.736-1.631.288-1.533-.487-2.032-.361-1.566.393.679 1.098-1.127 1.581-4.742 1.267-1.146-.1-1.544.271-1.086 1.011.485.785.176.959-.942.53-.915-.351-1.664-.165-1.664.414 0 .578-.558.866-1.241.638-.683-.228-1.875.22-2.649.994-.775.775-2.242 1.19-3.26.924-1.156-.302-1.603-.08-1.187.592.421.681.054.842-.999.438-.922-.354-1.664-.154-1.664.447 0 .597-.901.85-2.001.562-1.101-.288-1.802-.2-1.557.196.655 1.059-16.235 6.34-17.593 5.5-.772-.476-.885-.273-.339.609.587.951.367 1.152-.781.711-.88-.337-1.741-.285-1.914.117-.487 1.131-14.944 6.195-15.936 5.582-.483-.299-.879-.036-.879.583 0 .694-.817.868-2.125.452-1.526-.484-1.914-.332-1.375.54.545.882.135 1.019-1.5.5-1.686-.535-2.053-.394-1.461.563.561.908.308 1.092-.875.638-.916-.351-1.664-.155-1.664.437s-.675.817-1.5.5c-.825-.316-1.5-.109-1.5.461 0 .601-.892.753-2.125.361-1.575-.5-1.921-.343-1.336.603.548.888.319 1.096-.753.685-.848-.325-2.047-.087-2.664.53s-1.129.694-1.137.172c-.009-.523-.4-.344-.87.398-.469.741-2.037 1.416-3.484 1.5-1.446.083-2.63.538-2.63 1.009-.001.471-.676.598-1.501.281-.825-.316-1.5-.091-1.5.5 0 .592-.698.808-1.552.48-.854-.327-1.3-.187-.991.312.487.788-4.066 2.45-6.957 2.539-.55.017-1.279.412-1.619.879-.341.466-1.803.916-3.25 1-1.446.083-2.63.542-2.63 1.019-.001.476-.902.631-2.002.343-1.274-.333-1.76-.132-1.336.553.421.681.054.842-.999.438-.922-.354-1.664-.154-1.664.447 0 .597-.901.85-2.001.562-1.101-.288-1.75-.115-1.441.383.562.91-1.49 1.36-4.866 1.067-.995-.086-1.572.226-1.283.693.576.931-11.142 4.798-13.159 4.342-.687-.156-1.25.143-1.25.663 0 1.357-5.753 3.174-7.692 2.43-1.158-.444-1.405-.254-.847.649.585.946.239 1.103-1.336.603-1.308-.416-2.125-.242-2.125.452 0 .619-.45.848-1 .508-.55-.34-1-.093-1 .548s-.675.907-1.5.59c-.825-.316-1.5-.109-1.5.461 0 .612-.919.753-2.25.344-1.237-.38-1.905-.328-1.483.116.734.774-4.966 3.92-6.517 3.597-.412-.086-.637.336-.5.937.202.882-1.345 2.235-4.075 3.565-.179.087-.442.952-.584 1.922-.142.97-2.021 3.307-4.175 5.192-2.154 1.885-3.241 3.071-2.416 2.636 1.289-.68 1.308-.555.137.889-.75.925-1.774 1.427-2.275 1.118-.501-.31-.788.032-.637.761.151.728-.287 1.212-.975 1.074-.687-.137-1.15.088-1.028.5.123.413-.665 2.08-1.75 3.706-1.949 2.922-1.972 5.732-1.972 240.726v237.771l8 8.16c4.4 4.487 7.325 7.801 6.5 7.362-1.324-.704.483 1.671 4.929 6.48 1.282 1.387 33.777 1.545 318 1.545 174.114 0 318.146-.209 320.071-.464 3.252-.431 6-2.045 6-3.524 0-.346-.563-.306-1.25.089-.726.418-.901.338-.417-.191.459-.5 1.359-.91 2-.91.642 0 1.167-.562 1.167-1.25 0-.687.329-1.138.731-1 .402.138 1.445-.77 2.318-2.017.873-1.246 2.018-2 2.544-1.675.526.325.833-.005.682-.734-.151-.728.288-1.211.975-1.074.688.138 1.138-.312 1-1-.137-.687.346-1.126 1.074-.975.729.151 1.08-.122.78-.607-.3-.484 1.242-2.317 3.426-4.072l3.97-3.19V321.255l-4.75-4.378c-2.612-2.407-4.77-4.827-4.795-5.377-.025-.55-.562-.896-1.193-.769s-1.96-.803-2.954-2.067c-.995-1.264-2.258-2.493-2.808-2.731-.55-.238-.85-.883-.667-1.433.184-.55.011-.677-.384-.283-.394.395-1.842-.168-3.218-1.25-2.443-1.922-4.5-1.967-89.866-1.967-69.359 0-87.313-.258-87.115-1.25.138-.687 1.066-1.584 2.064-1.992 1.046-.427 1.51-1.233 1.096-1.904-.447-.724-.283-.893.435-.449.635.392 1.155.161 1.155-.513s.293-.932.651-.574c.358.358 1.292-.13 2.074-1.084.852-1.038 1.117-1.132.661-.234-.42.825.334.46 1.676-.811 1.341-1.27 2.792-2.267 3.224-2.214.432.053 1.481-.599 2.33-1.448.85-.85 2.071-1.244 2.715-.876.643.368.834.3.425-.151-.409-.451.266-1.528 1.5-2.392 1.234-.864 2.417-1.355 2.629-1.09 1.594 1.992 2-10.784 1.821-57.331-.157-40.784-.499-53.733-1.447-54.876-.683-.822-.946-1.791-.584-2.153.362-.362.133-.658-.508-.658-.642 0-1.167-.47-1.167-1.045 0-1.108-4.488-5.955-5.514-5.955-.332 0-.289.563.096 1.25.385.688-1.839-1.21-4.941-4.216-3.103-3.006-5.641-5.689-5.641-5.962 0-.273 2.25 1.719 5 4.428 2.75 2.709 5 4.614 5 4.233 0-.935-9.197-9.365-9.528-8.733-.144.275-1.149-.303-2.233-1.284-1.357-1.228-3.229-1.696-6.008-1.5-2.221.156-3.829.622-3.575 1.034m-274.69 249.5-5.466 5.75 5.75-5.466c5.342-5.078 6.208-6.034 5.466-6.034-.156 0-2.744 2.587-5.75 5.75m75.321 67.99c3.182.199 8.132.197 11-.004 2.867-.201.263-.364-5.787-.362-6.05.002-8.396.167-5.213.366m190.963.002c3.712.192 9.788.192 13.5 0 3.712-.193.675-.35-6.75-.35s-10.462.157-6.75.35M334.32 515c0 3.575.182 5.038.403 3.25.222-1.788.222-4.712 0-6.5-.221-1.788-.403-.325-.403 3.25m251.43 122.745c5.087.182 13.413.182 18.5 0 5.087-.181.925-.33-9.25-.33s-14.337.149-9.25.33m-95.47 42.991c2.629.207 6.679.204 9-.005 2.321-.21.17-.379-4.78-.376-4.95.003-6.849.175-4.22.381m1.97 41.999c2.613.206 6.887.206 9.5 0 2.613-.206.475-.375-4.75-.375s-7.363.169-4.75.375"/></svg>