<svg xmlns="http://www.w3.org/2000/svg" width="778" height="770"><path fill="#fff" fill-rule="evenodd" d="M548.958 54.25c4.144 4.415 5.042 5.209 5.042 4.458 0-.16-2.138-2.298-4.75-4.75L544.5 49.5l4.458 4.75m9.509 66.75c0 30.525.127 43.012.282 27.75.156-15.263.156-40.238 0-55.5-.155-15.263-.282-2.775-.282 27.75M302.5 268.647c-28.774 4.63-53.227 23.957-68.326 54.003-8.226 16.368-15.562 43.057-18.238 66.35-1.796 15.64-.732 38.064 2.377 50.064 3.794 14.645 9.433 24.958 18.561 33.943 8.614 8.48 16.348 12.808 28.784 16.109 10.387 2.757 28.986 3.023 38.342.549 19.146-5.063 35.772-17.751 47.841-36.51 4.274-6.645 10.986-22.851 13.269-32.042l1.338-5.386-3.974-3.48C344.501 396.511 340 393.486 340 397.142c0 2.231-6.327 16.731-10.044 23.017-10.6 17.928-23.766 26.476-36.657 23.799-7.032-1.46-13.236-7.372-15.973-15.222-2.549-7.31-2.551-34.184-.003-47.736 6.886-36.63 17.803-60.432 30.745-67.035 7.776-3.967 12.998-1.829 15.081 6.175 1.531 5.886-.651 17.977-5.644 31.269-1.867 4.97-3.306 9.103-3.199 9.186.107.082 12.449.374 27.428.649 21.132.388 27.468.218 28.276-.757 1.448-1.743 5.663-16.646 6.927-24.487 1.443-8.949 1.297-17.224-.448-25.5-5.503-26.093-26.344-40.785-59.489-41.937-6.325-.219-12.85-.182-14.5.084m189.075.344c-12.429 2.254-27.496 9.205-37.535 17.318-22.869 18.482-37.674 48.052-45.155 90.191-1.906 10.737-2.299 16.394-2.257 32.5.047 17.805.28 20.358 2.685 29.372 7.503 28.122 22.519 44.086 47.687 50.698 12.181 3.201 29.583 3.214 39.965.031 28.508-8.741 48.886-30.995 57.945-63.281 1.15-4.096 2.09-8.175 2.09-9.064 0-1.534-22.246-21.756-23.933-21.756-.439 0-1.811 2.813-3.047 6.25-3.419 9.505-9.915 21.486-15.26 28.147-16.306 20.317-37.931 20.302-45.8-.032-3.448-8.91-3.852-26.78-.992-43.865 5.546-33.126 13.636-54.883 24.572-66.084 5.764-5.904 11.719-8.405 16.263-6.83 3.32 1.152 6.193 6.58 6.195 11.706.003 6.242-2.92 18.661-6.515 27.678-1.857 4.658-3.288 8.537-3.18 8.62.108.082 12.671.383 27.917.669l27.719.519 2.085-5.571c3.26-8.713 4.952-16.899 5.625-27.207 2.416-37.045-19.733-59.147-60.649-60.516-6.325-.212-13.716.016-16.425.507M435.99 531.006c-1.743 1.077-1.217 2.065 6.916 12.994 3.888 5.225 7.075 10.007 7.081 10.626.015 1.311-15.811 8.021-27.698 11.745-15.815 4.954-28.489 6.896-45.789 7.017-28.067.196-49.069-5.269-81.5-21.211-9.625-4.731-17.931-8.619-18.457-8.639-1.024-.041-4.32 5.54-12.448 21.072-5.843 11.165-6.01 10.434 3.859 16.827 28.103 18.203 56.413 28.77 87.359 32.608 15.331 1.902 43.262.73 58.299-2.446 19.357-4.088 37.616-11.184 52.778-20.51 8.17-5.026 6.641-5.883 18.161 10.183 4.428 6.175 8.703 11.228 9.5 11.228 1.073 0 3.956-9.991 11.108-38.5 5.313-21.175 9.701-39.513 9.75-40.75L515 531l-29.75-.177c-16.363-.097-33.851-.274-38.864-.393-5.013-.119-9.691.14-10.396.576M229.169 725.75c85.618.141 226.018.141 312 0s15.931-.256-155.669-.256c-171.6 0-241.949.115-156.331.256m470.581-.044c1.237.238 3.263.238 4.5 0 1.237-.239.225-.434-2.25-.434s-3.487.195-2.25.434"/><path fill="#040404" fill-rule="evenodd" d="M524 46.027c-4.125 1.552-30.225 10.553-58 20.002-27.775 9.45-57.7 19.651-66.5 22.67A71820.45 71820.45 0 0 1 267 134.002c-23.925 8.15-62.175 21.195-85 28.988a34045.154 34045.154 0 0 1-66.5 22.632c-13.75 4.655-28.978 9.87-33.84 11.59l-8.84 3.126-10.848 12.328c-9.218 10.475-10.94 12.966-11.456 16.581-.334 2.339-.475 109.58-.312 238.313l.296 234.06 10.972 11.69L72.445 725h636.428l8.813-8.384c4.848-4.611 10.276-9.601 12.064-11.089l3.25-2.705v-488.61l-8.25-7.302c-4.538-4.016-9.517-8.451-11.065-9.856l-2.816-2.554-87.684-.5c-96.699-.551-92.875-.252-82.892-6.5 2.637-1.65 7.587-4.8 11-7l6.207-4 .258-56.382.259-56.382-10.759-10.332C539.27 45.733 535.856 43.09 534 43.139c-1.375.037-5.875 1.336-10 2.888M300.5 268.648c-34.411 7.152-59.146 30.575-73.202 69.318-12.452 34.323-16.105 74.587-9.243 101.877 6.374 25.349 22.316 42.4 45.961 49.16 16.476 4.71 37.344 3.481 51.741-3.047 18.947-8.591 35.647-26.83 44.259-48.338 3.843-9.596 6.522-19.774 5.741-21.81-.806-2.099-22.493-20.808-24.12-20.808-.7 0-2.077 2.587-3.062 5.75-2.749 8.83-9.998 22.167-15.93 29.308-7.17 8.632-14.531 13.003-23.047 13.686-22.94 1.842-29.938-23.052-20.049-71.32 6.282-30.662 16.802-51.932 28.591-57.806 6.483-3.231 8.006-3.258 11.554-.2 2.728 2.35 2.805 2.69 2.756 12.25-.045 8.764-.459 10.972-3.808 20.332-2.066 5.775-3.991 11.219-4.276 12.097-.698 2.148 8.49 2.903 35.336 2.903h20.4l1.467-3.511c3.475-8.318 6.428-23.947 6.43-34.029.002-17.315-4.264-28.951-14.225-38.801-11.987-11.853-28.684-17.752-49.652-17.543-6.392.064-12.522.303-13.622.532m186 1.279c-23.089 5.871-40.153 18.775-55.157 41.711-18.817 28.766-29.69 83.011-23.853 119 6.205 38.258 29.285 59.445 66.51 61.058 23.046.998 40.546-6.129 57.568-23.447 11.291-11.486 18.597-24.648 23.975-43.19 2.005-6.914 2.222-8.753 1.202-10.169-2.664-3.699-22.848-20.065-24.135-19.57-.744.285-1.667 1.792-2.051 3.349-1.276 5.177-9.466 21.447-13.981 27.774-7.627 10.688-15.419 16.159-24.555 17.241-6.929.82-11.552-.332-15.603-3.889-9.211-8.087-12.316-24.848-8.946-48.295 6.223-43.299 18.872-72.266 34.093-78.079 14.072-5.374 16.918 12.461 6.288 39.397-1.589 4.025-2.683 7.652-2.431 8.059.252.408 12.825.861 27.941 1.009 31.749.309 28.014 1.739 32.078-12.286 6.79-23.432 4.989-42.762-5.434-58.336-9.778-14.608-30.456-23.345-54.887-23.19-7.631.048-14.026.685-18.622 1.853m-50.759 260.665c-1.563 1.563-.506 3.678 6.778 13.565 4.225 5.734 7.14 10.584 6.655 11.069-1.64 1.64-23.129 9.801-32.388 12.3-14.587 3.937-26.148 5.466-41.36 5.47-27.636.008-51.892-6.556-83.627-22.631-8.163-4.134-15.338-7.352-15.945-7.15-1.249.417-16.813 29.593-16.838 31.565-.025 1.988 19.015 13.86 33.452 20.857 60.085 29.124 126.623 26.407 179.12-7.314 1.973-1.267 2.579-.655 11 11.114 7.959 11.122 11.543 14.765 13.047 13.261.957-.957 20.378-81.018 19.795-81.601-.88-.881-78.819-1.375-79.689-.505"/><path fill="#d7f486" fill-rule="evenodd" d="M0 385.001v385.002l389.25-.252 389.25-.251.251-384.75L779.003 0H0v385.001m.495.499c0 211.75.115 298.226.255 192.169.14-106.058.14-279.308 0-385C.61 86.976.495 173.75.495 385.5M528.694 44.33c-2.094 1.039-4.906 1.952-6.25 2.029-1.343.078-2.443.461-2.443.852-.001.591-5.689 2.508-9.501 3.203-.55.1-2.022.744-3.271 1.43-1.249.687-2.673 1-3.164.696-.492-.304-1.045-.113-1.23.424-.184.538-1.46 1.103-2.835 1.257-1.375.153-2.745.605-3.044 1.004-.299.399-1.649.849-3 1-1.351.151-2.701.601-3 1-.299.399-1.649.849-3 1-1.351.151-2.701.601-3 1-.299.399-1.649.849-3 1-1.351.151-2.681.541-2.956.866-.998 1.181-27.192 9.908-28.084 9.357-.504-.311-.916-.175-.916.302 0 1.083-10.015 4.359-11.161 3.651-.461-.286-.839-.101-.839.41 0 .722-5.072 2.627-10 3.755-.275.063-2.3.915-4.5 1.894-2.2.979-5.125 1.835-6.5 1.904-1.375.068-3.121.715-3.879 1.438-.758.722-1.967 1.087-2.685.812-.719-.276-1.462-.035-1.652.534-.19.57-1.569 1.107-3.064 1.194-1.495.087-2.719.437-2.719.778-.001.477-6.282 2.637-10.001 3.44-.275.059-1.85.668-3.5 1.352-7.195 2.985-19.805 7.018-20.533 6.567-.438-.27-.947-.052-1.132.485-.184.538-1.46 1.103-2.835 1.257-1.375.153-2.725.546-3 .873-.842 1-15.999 5.815-16.015 5.087-.009-.374-.366-.13-.794.544-.428.674-1.884 1.349-3.235 1.5-1.351.151-2.701.601-3 1-.299.399-1.649.849-3 1-1.351.151-2.701.601-3 1-.299.399-1.649.849-3 1-1.351.151-2.701.601-3 1-.299.399-1.649.849-3 1-1.351.151-2.681.561-2.956.91-.926 1.177-45.18 15.872-46.095 15.307-.498-.308-.905-.156-.905.339 0 .945-6.986 3.552-9.52 3.552-.814 0-1.48.317-1.48.704 0 .677-8.448 3.463-10.5 3.463-.55 0-1.225.291-1.5.647-.275.356-1.625.806-3 1-1.375.194-2.745.679-3.044 1.078-.299.399-1.649.849-3 1-1.351.151-2.681.541-2.956.866-.922 1.088-10.239 3.879-11.125 3.332-.481-.298-.875-.162-.875.302 0 1.072-8.944 4.428-10.023 3.761-.443-.274-.957-.113-1.142.358-.286.731-30.472 11.173-33.335 11.531-.55.069-1.245.451-1.544.85-.299.399-1.649.849-3 1-1.351.151-2.701.601-3 1-.299.399-1.649.849-3 1-1.351.151-2.701.601-3 1-.299.399-1.649.849-3 1-1.351.151-2.722.636-3.047 1.076-.325.441-1.694.919-3.042 1.063-1.348.144-2.918.55-3.489.902-2.366 1.463-20.744 7.626-21.445 7.192-.419-.259-.938.057-1.153.702-.215.646-1.809 1.173-3.542 1.173-1.732 0-2.918.375-2.635.834.47.76-.06.93-3.853 1.233-.687.055-1.475.37-1.75.701-.489.587-18.874 6.885-21.282 7.29-.67.113-2.24.767-3.489 1.453-1.249.687-2.673 1-3.164.696-.492-.304-1.045-.127-1.23.392-.184.52-1.46 1.097-2.835 1.282-1.375.185-3.054.684-3.731 1.109-.677.424-3.772 1.646-6.877 2.714-5.055 1.739-14.924 9.098-13.761 10.261.24.24-1.17 1.846-3.132 3.569-1.963 1.723-3.266 3.133-2.897 3.133.369 0-1.379 2.192-3.885 4.871-3.48 3.721-4.704 5.904-5.182 9.25-.345 2.408-.494 109.727-.331 238.486l.296 234.107 8.75 9.194c4.813 5.057 8.75 9.585 8.75 10.062 0 .477 1.521 1.807 3.38 2.956l3.38 2.089 316.87-.348c174.279-.192 317.431-.496 318.116-.675.685-.179 2.035-1.228 3-2.331 1.248-1.426 1.321-1.757.254-1.145-1.619.927 11.41-11.495 16.75-15.97l3.25-2.724v-488.61l-7.75-6.884c-4.263-3.786-9.453-8.333-11.535-10.106L709.93 194h-86.858c-72.792 0-86.944-.223-87.386-1.376-.31-.809.469-1.829 1.893-2.478 1.332-.607 2.421-1.589 2.421-2.184 0-.594.403-.831.895-.527.493.305 1.164-.147 1.493-1.004.329-.857 1.013-1.301 1.52-.988.506.313 1.072.206 1.257-.239.184-.445 3.373-2.793 7.085-5.219l6.75-4.409v-54.338c0-48.551-.176-54.677-1.651-57.53-1.899-3.673-11.427-13.964-12.206-13.184-.287.286-2.349-1.23-4.582-3.371-4.979-4.771-6.983-5.248-11.867-2.823M253.966 293.75l-5.466 5.75 5.75-5.466c3.163-3.006 5.75-5.594 5.75-5.75 0-.742-.956.124-6.034 5.466M323.272 325c0 2.475.195 3.488.434 2.25.238-1.238.238-3.262 0-4.5-.239-1.238-.434-.225-.434 2.25m9.027 36.745c4.84.184 12.49.183 17-.002 4.511-.185.551-.335-8.799-.334-9.35.001-13.04.153-8.201.336m189.951 0c4.813.183 12.688.183 17.5 0 4.813-.184.875-.334-8.75-.334s-13.562.15-8.75.334M214.32 408c0 3.575.182 5.038.403 3.25.222-1.788.222-4.712 0-6.5-.221-1.788-.403-.325-.403 3.25m21.18 65c2.148 2.2 4.131 4 4.406 4 .275 0-1.258-1.8-3.406-4s-4.131-4-4.406-4c-.275 0 1.258 1.8 3.406 4m228.303 57.746c5.667.179 14.667.178 20-.001 5.333-.18.697-.326-10.303-.325-11 .001-15.364.148-9.697.326m42.461-.028c1.52.229 3.77.223 5-.014 1.23-.237-.014-.425-2.764-.418-2.75.008-3.756.202-2.236.432M369.25 573.735c2.613.206 6.887.206 9.5 0 2.613-.206.475-.375-4.75-.375s-7.363.169-4.75.375m3 42c2.613.206 6.887.206 9.5 0 2.613-.206.475-.375-4.75-.375s-7.363.169-4.75.375"/></svg>