<svg xmlns="http://www.w3.org/2000/svg" width="1024" height="1024" viewBox="0 0 1024 1024" version="1.1"><path d="M 667.447 159.729 C 671.817 164.245, 675.575 167.758, 675.797 167.537 C 676.214 167.120, 672.904 163.768, 664.414 156.009 C 661.711 153.539, 663.076 155.213, 667.447 159.729 M 678.195 228 C 678.165 259.075, 678.503 283.600, 678.947 282.500 C 680.015 279.849, 680.132 181.782, 679.074 176 C 678.596 173.391, 678.227 195.239, 678.195 228 M 417.500 376.591 C 391.241 382.463, 368.328 401.517, 354.514 428.966 C 346.199 445.490, 339.486 468.904, 336.430 492.035 C 334.089 509.759, 334.893 532.941, 338.304 546.064 C 344.763 570.911, 359.570 587.939, 380.495 594.583 C 402.974 601.721, 425.356 599.375, 444.686 587.855 C 455.968 581.131, 469.438 565.973, 476.449 552.111 C 479.466 546.146, 486 526.939, 486 524.035 C 486 522.910, 481.476 518.329, 474.453 512.342 C 468.101 506.929, 462.477 502.350, 461.953 502.167 C 461.429 501.984, 460.715 502.659, 460.365 503.667 C 448.654 537.439, 431.175 554.804, 412.851 550.875 C 406.257 549.461, 399.975 543.335, 397.326 535.736 C 394.555 527.789, 394.826 500.505, 397.826 485.367 C 404.681 450.773, 415.726 427.262, 428.082 420.958 C 435.388 417.231, 439.936 418.647, 442.539 425.462 C 444.031 429.369, 444.103 430.946, 443.096 437.723 C 442.142 444.149, 437.783 458.675, 434.536 466.250 C 433.841 467.872, 434.906 468.003, 449.143 468.038 C 457.589 468.058, 469.975 468.325, 476.666 468.630 C 491.193 469.293, 490.440 469.890, 494.491 454.500 C 504.826 415.235, 490.705 386.912, 456.300 377.901 C 445.662 375.114, 426.932 374.482, 417.500 376.591 M 611.691 375.979 C 593.936 379.198, 576.697 388.924, 563.504 403.165 C 547.142 420.826, 536.115 445.888, 529.322 480.851 C 526.990 492.854, 526.668 496.972, 526.650 515 C 526.630 534.089, 526.813 536.188, 529.299 545.500 C 536.750 573.401, 552.152 589.707, 577.176 596.187 C 589.251 599.314, 606.727 599.284, 616.965 596.119 C 645.519 587.293, 666.139 564.732, 675.054 532.563 C 676.124 528.701, 677 524.775, 677 523.840 C 677 522.249, 654.811 502, 653.067 502 C 652.628 502, 651.256 504.813, 650.020 508.250 C 645.099 521.931, 635.995 536.636, 628.081 543.686 C 619.763 551.096, 607.568 553.402, 599.251 549.139 C 587.219 542.970, 583.136 522.137, 588.075 492.113 C 593.418 459.640, 601.628 437.592, 612.540 426.416 C 618.304 420.512, 624.259 418.011, 628.803 419.586 C 632.123 420.738, 634.996 426.166, 634.998 431.292 C 635.001 437.534, 632.078 449.953, 628.483 458.970 C 626.626 463.628, 625.195 467.507, 625.303 467.588 C 625.411 467.670, 637.967 467.989, 653.205 468.296 L 680.910 468.855 683.062 463.178 C 689.473 446.255, 690.741 423.124, 685.949 410.500 C 679.405 393.261, 667.526 383.227, 647.342 377.892 C 638.558 375.571, 619.566 374.552, 611.691 375.979 M 556.104 637.830 C 554.248 639.118, 554.666 639.927, 562.906 651 C 566.794 656.225, 569.981 661.007, 569.987 661.626 C 569.994 662.246, 565.612 664.563, 560.250 666.775 C 508.625 688.078, 464.599 685.041, 408.818 656.331 C 401.744 652.690, 395.810 649.888, 395.631 650.105 C 395.452 650.322, 391.616 657.404, 387.106 665.841 C 380.252 678.665, 379.114 681.432, 380.171 682.706 C 382.520 685.537, 399.428 696.001, 410.500 701.477 C 430.594 711.416, 453.708 718.398, 475.313 721.056 C 490.671 722.945, 518.611 721.768, 533.612 718.599 C 552.999 714.504, 571.226 707.416, 586.454 698.049 L 593.407 693.772 595.954 696.749 C 597.354 698.386, 600.975 703.234, 604 707.522 C 611.966 718.813, 613.674 720.683, 614.911 719.470 C 615.946 718.454, 635 642.693, 635 639.595 C 635 638.180, 632.313 638, 611.159 638 C 598.046 638, 580.609 637.744, 572.409 637.431 C 563.435 637.089, 556.944 637.247, 556.104 637.830 M 355.250 832.750 C 439.812 832.891, 578.187 832.891, 662.750 832.750 C 747.312 832.609, 678.125 832.494, 509 832.494 C 339.875 832.494, 270.687 832.609, 355.250 832.750" stroke="none" fill="#ffffff" fill-rule="evenodd"/><path d="M 650.788 150.546 C 650.488 150.846, 636.350 155.834, 619.371 161.632 C 602.392 167.429, 570.275 178.392, 548 185.994 C 525.725 193.595, 490.400 205.666, 469.500 212.817 C 414.675 231.577, 304.612 269.154, 283 276.491 C 234.033 293.114, 206.854 302.382, 200.169 304.736 C 192.989 307.264, 192.617 307.569, 182.008 319.624 L 171.177 331.932 170.533 339.216 C 170.179 343.222, 170.027 450.478, 170.195 577.562 L 170.500 808.624 181.500 820.306 L 192.500 831.989 510.648 831.994 L 828.796 832 835.148 825.892 C 838.642 822.533, 844.087 817.516, 847.250 814.742 L 853 809.700 853 565.456 L 853 321.212 845.250 314.328 C 840.987 310.542, 835.797 305.995, 833.715 304.222 L 829.930 301 742.392 301 C 659.562 301, 654.871 300.906, 655.185 299.250 C 655.368 298.288, 657.670 296.150, 660.302 294.500 C 662.934 292.850, 667.880 289.700, 671.293 287.500 L 677.500 283.500 677.758 227.118 L 678.017 170.736 667.258 160.404 C 659.380 152.839, 655.808 150.063, 653.917 150.036 C 652.496 150.016, 651.088 150.246, 650.788 150.546 M 416.500 376.474 C 391.110 382.040, 367.828 401.595, 354.023 428.952 C 349.471 437.973, 344.533 452.003, 341.061 465.779 C 328.548 515.437, 334.100 558.224, 355.870 579.915 C 375.574 599.547, 411.112 604.806, 437.500 591.996 C 451.211 585.340, 464.788 572.760, 472.906 559.192 C 479.826 547.625, 486.894 527.335, 485.574 522.827 C 484.863 520.401, 465.044 503.086, 462.095 502.315 C 460.784 501.972, 459.996 503.176, 458.580 507.686 C 455.992 515.930, 450.012 527.458, 444.568 534.699 C 428.048 556.672, 404.220 556.495, 397.362 534.347 C 391.202 514.451, 398.999 466.245, 412.654 439.806 C 418.115 429.233, 423.866 422.980, 430.439 420.470 C 434.745 418.826, 435.528 418.786, 437.862 420.096 C 442.167 422.512, 443.154 425.560, 442.693 435.013 C 442.376 441.525, 441.410 445.989, 438.581 454.013 C 436.548 459.781, 434.651 465.219, 434.366 466.097 C 433.668 468.245, 442.856 469, 469.702 469 L 490.102 469 491.569 465.489 C 495.044 457.171, 497.997 441.542, 497.999 431.460 C 498.001 414.145, 493.735 402.509, 483.774 392.659 C 471.817 380.836, 455.152 374.936, 434.122 375.079 C 427.730 375.123, 419.800 375.751, 416.500 376.474 M 606.500 376.915 C 584.430 382.487, 566.707 395.581, 552.659 416.693 C 536.533 440.928, 525.994 479.650, 526.004 514.628 C 526.017 559.392, 542.009 586.171, 574.487 595.818 C 585.291 599.026, 602.532 599.824, 613 597.600 C 622.546 595.571, 634.848 589.682, 642.518 583.469 C 659.256 569.909, 668.936 554.841, 675.543 532.059 C 677.548 525.145, 677.765 523.306, 676.745 521.890 C 674.081 518.191, 653.897 501.825, 652.610 502.320 C 651.866 502.605, 650.943 504.112, 650.559 505.669 C 649.283 510.846, 641.093 527.116, 636.578 533.443 C 628.951 544.131, 621.159 549.602, 612.023 550.684 C 604.892 551.528, 600.363 550.323, 596.060 546.435 C 585.276 536.692, 583.434 514.660, 590.575 480.838 C 596.213 454.132, 602.816 437.691, 611.867 427.818 C 623.692 414.920, 634.470 417.100, 634.304 432.358 C 634.226 439.605, 631.865 449.657, 627.855 459.818 C 626.266 463.843, 625.172 467.470, 625.424 467.877 C 625.676 468.285, 638.249 468.738, 653.365 468.886 C 685.114 469.195, 681.379 470.625, 685.443 456.600 C 692.233 433.168, 690.432 413.838, 680.009 398.264 C 670.231 383.656, 649.553 374.919, 625.122 375.074 C 617.544 375.122, 611.064 375.762, 606.500 376.915 M 555.739 637.594 C 554.178 639.155, 555.237 641.274, 562.519 651.157 C 566.744 656.891, 569.659 661.741, 569.174 662.226 C 567.534 663.866, 546.045 672.027, 536.786 674.526 C 522.199 678.463, 510.638 679.992, 495.426 679.996 C 467.790 680.004, 443.534 673.440, 411.799 657.365 C 403.636 653.231, 396.461 650.013, 395.854 650.215 C 394.605 650.632, 379.041 679.808, 379.016 681.780 C 378.991 683.768, 398.031 695.640, 412.468 702.637 C 472.549 731.759, 539.086 729.044, 591.578 695.330 C 593.538 694.071, 594.164 694.704, 602.578 706.453 C 610.610 717.668, 614.123 721.210, 615.676 719.657 C 616.654 718.680, 636.022 638.688, 635.425 638.092 C 634.550 637.216, 556.604 636.729, 555.739 637.594" stroke="none" fill="#040404" fill-rule="evenodd"/><path d="M 0 512.001 L 0 1024.002 512.250 1023.751 L 1024.500 1023.500 1024.751 511.750 L 1025.002 0 512.501 0 L 0 0 0 512.001 M 0.496 512.500 C 0.496 794.100, 0.610 909.151, 0.750 768.168 C 0.890 627.186, 0.890 396.786, 0.750 256.168 C 0.610 115.551, 0.496 230.900, 0.496 512.500 M 648.656 151.250 C 649.132 152.022, 646.874 152.436, 643.692 152.160 C 642.546 152.060, 642.148 152.431, 642.606 153.171 C 643.091 153.956, 642.782 154.130, 641.664 153.701 C 640.749 153.350, 640 153.477, 640 153.984 C 640 155.087, 633.050 157.149, 631.844 156.403 C 631.380 156.117, 631 156.344, 631 156.910 C 631 157.475, 630.325 157.678, 629.500 157.362 C 628.675 157.045, 628 157.270, 628 157.862 C 628 158.454, 627.252 158.650, 626.336 158.299 C 625.120 157.832, 624.895 158.021, 625.500 159 C 626.105 159.979, 625.880 160.168, 624.664 159.701 C 623.749 159.350, 623 159.529, 623 160.099 C 623 160.700, 622.108 160.852, 620.875 160.460 C 619.300 159.960, 618.954 160.117, 619.539 161.063 C 620.100 161.971, 619.847 162.155, 618.664 161.701 C 617.748 161.350, 617 161.546, 617 162.138 C 617 162.730, 616.354 162.966, 615.565 162.663 C 614.775 162.360, 613.974 162.579, 613.784 163.148 C 613.594 163.718, 612.215 164.255, 610.720 164.342 C 609.225 164.429, 608.001 164.868, 608.001 165.317 C 608 165.767, 607.044 165.831, 605.875 165.460 C 604.349 164.976, 603.961 165.128, 604.500 166 C 605.045 166.882, 604.635 167.019, 603 166.500 C 601.314 165.965, 600.947 166.106, 601.539 167.063 C 602.100 167.971, 601.847 168.155, 600.664 167.701 C 599.748 167.350, 599 167.546, 599 168.138 C 599 168.730, 598.325 168.955, 597.500 168.638 C 596.675 168.322, 596 168.574, 596 169.198 C 596 169.822, 595.704 170.037, 595.342 169.675 C 594.980 169.313, 594.069 169.528, 593.318 170.151 C 592.566 170.775, 591.684 171.017, 591.357 170.690 C 591.030 170.363, 590.073 170.784, 589.232 171.625 C 588.390 172.467, 586.868 172.937, 585.850 172.671 C 584.831 172.404, 584.203 172.519, 584.454 172.925 C 585.109 173.986, 574.208 177.246, 572.837 176.399 C 572.078 175.930, 571.967 176.138, 572.510 177.015 C 573.104 177.977, 572.872 178.165, 571.664 177.701 C 570.749 177.350, 570 177.529, 570 178.099 C 570 178.700, 569.108 178.852, 567.875 178.460 C 566.445 178.006, 565.973 178.148, 566.434 178.893 C 567.113 179.991, 565.307 180.474, 561.692 180.160 C 560.546 180.060, 560.148 180.431, 560.606 181.171 C 561.091 181.956, 560.782 182.130, 559.664 181.701 C 558.749 181.350, 558 181.529, 558 182.099 C 558 182.700, 557.108 182.852, 555.875 182.460 C 554.445 182.006, 553.973 182.148, 554.434 182.893 C 555.064 183.912, 553.602 184.393, 550.250 184.269 C 549.563 184.243, 549 184.697, 549 185.278 C 549 185.858, 548.704 186.037, 548.342 185.675 C 547.980 185.313, 547.080 185.519, 546.342 186.131 C 545.604 186.744, 544.993 186.852, 544.985 186.372 C 544.976 185.893, 544.566 186.137, 544.073 186.917 C 543.579 187.696, 541.806 188.333, 540.132 188.333 C 538.458 188.333, 537.350 188.757, 537.669 189.274 C 538.008 189.821, 537.363 189.933, 536.125 189.540 C 534.892 189.148, 534 189.300, 534 189.901 C 534 190.471, 533.251 190.650, 532.336 190.299 C 531.217 189.869, 530.909 190.043, 531.395 190.830 C 532.069 191.921, 530.698 192.397, 527.250 192.269 C 526.563 192.243, 526 192.670, 526 193.218 C 526 193.766, 525.325 193.955, 524.500 193.638 C 523.675 193.322, 523 193.547, 523 194.138 C 523 194.730, 522.354 194.966, 521.565 194.663 C 520.775 194.360, 519.974 194.579, 519.784 195.148 C 519.594 195.718, 518.215 196.255, 516.720 196.342 C 515.225 196.429, 514.001 196.913, 514.001 197.417 C 514 197.921, 513.704 198.037, 513.342 197.675 C 512.980 197.313, 512.069 197.528, 511.318 198.151 C 510.566 198.775, 509.684 199.017, 509.357 198.690 C 509.030 198.363, 508.073 198.784, 507.232 199.625 C 506.390 200.467, 504.868 200.937, 503.850 200.671 C 502.831 200.404, 502.220 200.547, 502.492 200.987 C 503.148 202.048, 498.217 203.252, 496.800 202.376 C 496.078 201.930, 495.977 202.154, 496.510 203.015 C 497.104 203.977, 496.872 204.165, 495.664 203.701 C 494.742 203.347, 494 203.547, 494 204.148 C 494 204.745, 493.099 204.998, 491.999 204.710 C 490.725 204.377, 490.239 204.578, 490.663 205.263 C 491.084 205.944, 490.717 206.105, 489.664 205.701 C 488.742 205.347, 488 205.547, 488 206.148 C 488 206.745, 487.099 206.998, 485.999 206.710 C 484.725 206.377, 484.239 206.578, 484.663 207.263 C 485.084 207.944, 484.717 208.105, 483.664 207.701 C 482.749 207.350, 482 207.457, 482 207.938 C 482 208.419, 481.030 208.559, 479.844 208.249 C 478.226 207.826, 477.892 208.017, 478.508 209.012 C 479.104 209.978, 478.874 210.166, 477.664 209.701 C 476.749 209.350, 476 209.485, 476 210 C 476 210.515, 475.251 210.650, 474.336 210.299 C 473.217 209.869, 472.909 210.043, 473.395 210.830 C 474.061 211.908, 472.242 212.417, 468.250 212.269 C 467.563 212.243, 467 212.649, 467 213.170 C 467 213.691, 466.550 213.840, 466 213.500 C 465.450 213.160, 465 213.407, 465 214.048 C 465 214.689, 464.325 214.955, 463.500 214.638 C 462.675 214.322, 462 214.547, 462 215.138 C 462 215.730, 461.325 215.955, 460.500 215.638 C 459.675 215.322, 459 215.529, 459 216.099 C 459 216.700, 458.108 216.852, 456.875 216.460 C 455.300 215.960, 454.954 216.117, 455.539 217.063 C 456.100 217.971, 455.847 218.155, 454.664 217.701 C 453.748 217.350, 453 217.546, 453 218.138 C 453 218.730, 452.325 218.955, 451.500 218.638 C 450.675 218.322, 450 218.547, 450 219.138 C 450 219.730, 449.325 219.955, 448.500 219.638 C 447.675 219.322, 447 219.529, 447 220.099 C 447 220.700, 446.108 220.852, 444.875 220.460 C 443.349 219.976, 442.961 220.128, 443.500 221 C 444.045 221.882, 443.635 222.019, 442 221.500 C 440.314 220.965, 439.947 221.106, 440.539 222.063 C 441.094 222.960, 440.853 223.158, 439.729 222.726 C 438.849 222.389, 437.974 222.579, 437.784 223.148 C 437.594 223.718, 436.215 224.255, 434.720 224.342 C 433.225 224.429, 432.001 224.800, 432.001 225.167 C 431.999 226.322, 410.109 233.185, 408.870 232.420 C 408.203 232.007, 407.955 232.119, 408.300 232.677 C 409.061 233.908, 398.404 237.368, 396.837 236.399 C 396.078 235.930, 395.967 236.138, 396.510 237.015 C 397.104 237.977, 396.872 238.165, 395.664 237.701 C 394.749 237.350, 394 237.529, 394 238.099 C 394 238.700, 393.108 238.852, 391.875 238.460 C 390.558 238.042, 389.985 238.167, 390.369 238.788 C 391.082 239.941, 388.273 241.286, 386.910 240.444 C 386.409 240.135, 386 240.389, 386 241.008 C 386 241.715, 385.161 241.877, 383.750 241.443 C 382.512 241.063, 381.862 241.132, 382.304 241.597 C 383.227 242.566, 373.203 246.243, 371.875 245.423 C 371.394 245.125, 371 245.411, 371 246.058 C 371 246.741, 370.162 247.014, 368.999 246.710 C 367.793 246.395, 367.246 246.590, 367.624 247.200 C 368.021 247.843, 367.427 247.953, 366 247.500 C 364.365 246.981, 363.955 247.118, 364.500 248 C 365.031 248.859, 364.670 249.030, 363.266 248.584 C 360.804 247.803, 357.795 248.860, 358.631 250.212 C 359.020 250.841, 358.413 250.948, 357 250.500 C 355.467 250.013, 354.968 250.139, 355.434 250.893 C 356.113 251.991, 354.307 252.474, 350.692 252.160 C 349.546 252.060, 349.148 252.431, 349.606 253.171 C 350.091 253.956, 349.782 254.130, 348.664 253.701 C 347.749 253.350, 347 253.536, 347 254.115 C 347 254.693, 346.442 254.981, 345.759 254.753 C 345.076 254.525, 343.884 254.973, 343.110 255.747 C 342.335 256.522, 340.868 256.937, 339.850 256.671 C 338.694 256.369, 338.247 256.591, 338.663 257.263 C 339.084 257.944, 338.717 258.105, 337.664 257.701 C 336.742 257.347, 336 257.547, 336 258.148 C 336 258.745, 335.099 258.998, 333.999 258.710 C 332.898 258.422, 332.197 258.510, 332.442 258.906 C 333.097 259.965, 316.207 265.246, 314.849 264.406 C 314.077 263.930, 313.964 264.133, 314.510 265.015 C 315.097 265.966, 314.877 266.167, 313.729 265.726 C 312.849 265.389, 311.988 265.441, 311.815 265.843 C 311.328 266.974, 296.871 272.038, 295.879 271.425 C 295.396 271.126, 295 271.389, 295 272.008 C 295 272.702, 294.183 272.876, 292.875 272.460 C 291.349 271.976, 290.961 272.128, 291.500 273 C 292.045 273.882, 291.635 274.019, 290 273.500 C 288.314 272.965, 287.947 273.106, 288.539 274.063 C 289.100 274.971, 288.847 275.155, 287.664 274.701 C 286.748 274.350, 286 274.546, 286 275.138 C 286 275.730, 285.325 275.955, 284.500 275.638 C 283.675 275.322, 283 275.529, 283 276.099 C 283 276.700, 282.108 276.852, 280.875 276.460 C 279.300 275.960, 278.954 276.117, 279.539 277.063 C 280.087 277.951, 279.858 278.159, 278.786 277.748 C 277.938 277.423, 276.739 277.661, 276.122 278.278 C 275.505 278.895, 274.993 278.972, 274.985 278.450 C 274.976 277.927, 274.585 278.106, 274.115 278.848 C 273.646 279.589, 272.078 280.264, 270.631 280.348 C 269.185 280.431, 268.001 280.886, 268.001 281.357 C 268 281.828, 267.325 281.955, 266.500 281.638 C 265.675 281.322, 265 281.547, 265 282.138 C 265 282.730, 264.302 282.946, 263.448 282.618 C 262.594 282.291, 262.148 282.431, 262.457 282.930 C 262.944 283.718, 258.391 285.380, 255.500 285.469 C 254.950 285.486, 254.221 285.881, 253.881 286.348 C 253.540 286.814, 252.078 287.264, 250.631 287.348 C 249.185 287.431, 248.001 287.890, 248.001 288.367 C 248 288.843, 247.099 288.998, 245.999 288.710 C 244.725 288.377, 244.239 288.578, 244.663 289.263 C 245.084 289.944, 244.717 290.105, 243.664 289.701 C 242.742 289.347, 242 289.547, 242 290.148 C 242 290.745, 241.099 290.998, 239.999 290.710 C 238.898 290.422, 238.249 290.595, 238.558 291.093 C 239.120 292.003, 237.068 292.453, 233.692 292.160 C 232.697 292.074, 232.120 292.386, 232.409 292.853 C 232.985 293.784, 221.267 297.651, 219.250 297.195 C 218.563 297.039, 218 297.338, 218 297.858 C 218 299.215, 212.247 301.032, 210.308 300.288 C 209.150 299.844, 208.903 300.034, 209.461 300.937 C 210.046 301.883, 209.700 302.040, 208.125 301.540 C 206.817 301.124, 206 301.298, 206 301.992 C 206 302.611, 205.550 302.840, 205 302.500 C 204.450 302.160, 204 302.407, 204 303.048 C 204 303.689, 203.325 303.955, 202.500 303.638 C 201.675 303.322, 201 303.529, 201 304.099 C 201 304.711, 200.081 304.852, 198.750 304.443 C 197.513 304.063, 196.845 304.115, 197.267 304.559 C 198.001 305.333, 192.301 308.479, 190.750 308.156 C 190.338 308.070, 190.113 308.492, 190.250 309.093 C 190.452 309.975, 188.905 311.328, 186.175 312.658 C 185.996 312.745, 185.733 313.610, 185.591 314.580 C 185.449 315.550, 183.570 317.887, 181.416 319.772 C 179.262 321.657, 178.175 322.843, 179 322.408 C 180.289 321.728, 180.308 321.853, 179.137 323.297 C 178.387 324.222, 177.363 324.724, 176.862 324.415 C 176.361 324.105, 176.074 324.447, 176.225 325.176 C 176.376 325.904, 175.938 326.388, 175.250 326.250 C 174.563 326.113, 174.100 326.338, 174.222 326.750 C 174.345 327.163, 173.557 328.830, 172.472 330.456 C 170.523 333.378, 170.500 336.188, 170.500 571.182 L 170.500 808.953 178.500 817.113 C 182.900 821.600, 185.825 824.914, 185 824.475 C 183.676 823.771, 185.483 826.146, 189.929 830.955 C 191.211 832.342, 223.706 832.500, 507.929 832.500 C 682.043 832.500, 826.075 832.291, 828 832.036 C 831.252 831.605, 834 829.991, 834 828.512 C 834 828.166, 833.437 828.206, 832.750 828.601 C 832.024 829.019, 831.849 828.939, 832.333 828.410 C 832.792 827.910, 833.692 827.500, 834.333 827.500 C 834.975 827.500, 835.500 826.938, 835.500 826.250 C 835.500 825.563, 835.829 825.112, 836.231 825.250 C 836.633 825.388, 837.676 824.480, 838.549 823.233 C 839.422 821.987, 840.567 821.233, 841.093 821.558 C 841.619 821.883, 841.926 821.553, 841.775 820.824 C 841.624 820.096, 842.063 819.613, 842.750 819.750 C 843.438 819.888, 843.888 819.438, 843.750 818.750 C 843.613 818.063, 844.096 817.624, 844.824 817.775 C 845.553 817.926, 845.904 817.653, 845.604 817.168 C 845.304 816.684, 846.846 814.851, 849.030 813.096 L 853 809.906 853 565.580 L 853 321.255 848.250 316.877 C 845.638 314.470, 843.480 312.050, 843.455 311.500 C 843.430 310.950, 842.893 310.604, 842.262 310.731 C 841.631 310.858, 840.302 309.928, 839.308 308.664 C 838.313 307.400, 837.050 306.171, 836.500 305.933 C 835.950 305.695, 835.650 305.050, 835.833 304.500 C 836.017 303.950, 835.844 303.823, 835.449 304.217 C 835.055 304.612, 833.607 304.049, 832.231 302.967 C 829.788 301.045, 827.731 301, 742.365 301 C 673.006 301, 655.052 300.742, 655.250 299.750 C 655.388 299.063, 656.316 298.166, 657.314 297.758 C 658.360 297.331, 658.824 296.525, 658.410 295.854 C 657.963 295.130, 658.127 294.961, 658.845 295.405 C 659.480 295.797, 660 295.566, 660 294.892 C 660 294.218, 660.293 293.960, 660.651 294.318 C 661.009 294.676, 661.943 294.188, 662.725 293.234 C 663.577 292.196, 663.842 292.102, 663.386 293 C 662.966 293.825, 663.720 293.460, 665.062 292.189 C 666.403 290.919, 667.854 289.922, 668.286 289.975 C 668.718 290.028, 669.767 289.376, 670.616 288.527 C 671.466 287.677, 672.687 287.283, 673.331 287.651 C 673.974 288.019, 674.165 287.951, 673.756 287.500 C 673.347 287.049, 674.022 285.972, 675.256 285.108 C 676.490 284.244, 677.673 283.753, 677.885 284.018 C 679.479 286.010, 679.885 273.234, 679.706 226.687 C 679.549 185.903, 679.207 172.954, 678.259 171.811 C 677.576 170.989, 677.313 170.020, 677.675 169.658 C 678.037 169.296, 677.808 169, 677.167 169 C 676.525 169, 676 168.530, 676 167.955 C 676 166.847, 671.512 162, 670.486 162 C 670.154 162, 670.197 162.563, 670.582 163.250 C 670.967 163.938, 668.743 162.040, 665.641 159.034 C 662.538 156.028, 660 153.345, 660 153.072 C 660 152.799, 662.250 154.791, 665 157.500 C 667.750 160.209, 670 162.114, 670 161.733 C 670 160.798, 660.803 152.368, 660.472 153 C 660.328 153.275, 659.323 152.697, 658.239 151.716 C 656.882 150.488, 655.010 150.020, 652.231 150.216 C 650.010 150.372, 648.402 150.838, 648.656 151.250 M 373.966 400.750 L 368.500 406.500 374.250 401.034 C 379.592 395.956, 380.458 395, 379.716 395 C 379.560 395, 376.972 397.587, 373.966 400.750 M 449.287 468.740 C 452.469 468.939, 457.419 468.937, 460.287 468.736 C 463.154 468.535, 460.550 468.372, 454.500 468.374 C 448.450 468.376, 446.104 468.541, 449.287 468.740 M 640.250 468.742 C 643.962 468.934, 650.038 468.934, 653.750 468.742 C 657.462 468.549, 654.425 468.392, 647 468.392 C 639.575 468.392, 636.538 468.549, 640.250 468.742 M 334.320 515 C 334.320 518.575, 334.502 520.038, 334.723 518.250 C 334.945 516.462, 334.945 513.538, 334.723 511.750 C 334.502 509.962, 334.320 511.425, 334.320 515 M 585.750 637.745 C 590.837 637.927, 599.163 637.927, 604.250 637.745 C 609.337 637.564, 605.175 637.415, 595 637.415 C 584.825 637.415, 580.663 637.564, 585.750 637.745 M 490.280 680.736 C 492.909 680.943, 496.959 680.940, 499.280 680.731 C 501.601 680.521, 499.450 680.352, 494.500 680.355 C 489.550 680.358, 487.651 680.530, 490.280 680.736 M 492.250 722.735 C 494.863 722.941, 499.137 722.941, 501.750 722.735 C 504.363 722.529, 502.225 722.360, 497 722.360 C 491.775 722.360, 489.637 722.529, 492.250 722.735" stroke="none" fill="#d0f370" fill-rule="evenodd"/></svg>